<?xml version="1.0" encoding="utf-8"?>
<!-- Generator: Adobe Illustrator 21.1.0, SVG Export Plug-In . SVG Version: 6.00 Build 0)  -->
<svg version="1.1" id="Icon_Set" xmlns="http://www.w3.org/2000/svg" xmlns:xlink="http://www.w3.org/1999/xlink" x="0px" y="0px"
	 viewBox="0 0 64 64" style="enable-background:new 0 0 64 64;" xml:space="preserve">
<style type="text/css">
	.st0{fill:#263238;}
	.st1{fill:#FFFFFF;}
	.st2{fill:#FF5252;}
	.st3{fill:#FFD740;}
	.st4{fill:#40C4FF;}
	.st5{fill:#4DB6AC;}
	.st6{fill:#4FC3F7;}
</style>
<g id="Cryptocurrency_Wallet">
	<g>
		<path class="st4" d="M36.25,1c-5.523,0-10,4.477-10,10c0,0.438,0.038,0.866,0.092,1.288c4.391,0.968,7.869,4.34,9.003,8.666
			C35.643,20.981,35.944,21,36.25,21c5.523,0,10-4.477,10-10C46.25,5.477,41.773,1,36.25,1z"/>
	</g>
	<g>
		<path class="st0" d="M36.25,21.5c-0.32,0-0.637-0.02-0.95-0.048c-0.274-0.025-0.478-0.268-0.453-0.543
			c0.024-0.276,0.268-0.484,0.543-0.453c0.284,0.025,0.569,0.044,0.86,0.044c5.238,0,9.5-4.262,9.5-9.5s-4.262-9.5-9.5-9.5
			s-9.5,4.262-9.5,9.5c0,0.364,0.028,0.754,0.088,1.226c0.035,0.274-0.159,0.524-0.433,0.559c-0.271,0.03-0.524-0.159-0.56-0.433
			C25.78,11.837,25.75,11.408,25.75,11c0-5.79,4.71-10.5,10.5-10.5s10.5,4.71,10.5,10.5S42.04,21.5,36.25,21.5z"/>
	</g>
	<g>
		<path class="st0" d="M55.5,37c-0.276,0-0.5-0.224-0.5-0.5V29c0-2.481-2.019-4.5-4.5-4.5H35.75c-0.276,0-0.5-0.224-0.5-0.5
			s0.224-0.5,0.5-0.5H50.5c3.032,0,5.5,2.467,5.5,5.5v7.5C56,36.776,55.776,37,55.5,37z"/>
	</g>
	<g>
		<path class="st0" d="M50.5,63.5H7c-3.032,0-5.5-2.467-5.5-5.5V29c0-3.033,2.468-5.5,5.5-5.5h4.75c0.276,0,0.5,0.224,0.5,0.5
			s-0.224,0.5-0.5,0.5H7c-2.481,0-4.5,2.019-4.5,4.5v29c0,2.481,2.019,4.5,4.5,4.5h43.5c2.481,0,4.5-2.019,4.5-4.5v-7.5
			c0-0.276,0.224-0.5,0.5-0.5s0.5,0.224,0.5,0.5V58C56,61.033,53.532,63.5,50.5,63.5z"/>
	</g>
	<g>
		<path class="st0" d="M59.5,49H45c-1.654,0-3-1.346-3-3v-5c0-1.654,1.346-3,3-3h14.5c1.654,0,3,1.346,3,3v5
			C62.5,47.654,61.154,49,59.5,49z M45,39c-1.103,0-2,0.897-2,2v5c0,1.103,0.897,2,2,2h14.5c1.103,0,2-0.897,2-2v-5
			c0-1.103-0.897-2-2-2H45z"/>
	</g>
	<g>
		<path class="st0" d="M47.5,46.5c-1.654,0-3-1.346-3-3s1.346-3,3-3s3,1.346,3,3S49.154,46.5,47.5,46.5z M47.5,41.5
			c-1.103,0-2,0.897-2,2s0.897,2,2,2s2-0.897,2-2S48.603,41.5,47.5,41.5z"/>
	</g>
	<g>
		<path class="st0" d="M12.5,14c-0.276,0-0.5-0.224-0.5-0.5v-4C12,9.224,12.224,9,12.5,9S13,9.224,13,9.5v4
			C13,13.776,12.776,14,12.5,14z"/>
	</g>
	<g>
		<path class="st0" d="M14.5,12h-4c-0.276,0-0.5-0.224-0.5-0.5s0.224-0.5,0.5-0.5h4c0.276,0,0.5,0.224,0.5,0.5S14.776,12,14.5,12z"
			/>
	</g>
	<g>
		<path class="st0" d="M6,9.5C5.724,9.5,5.5,9.276,5.5,9V5c0-0.276,0.224-0.5,0.5-0.5S6.5,4.724,6.5,5v4C6.5,9.276,6.276,9.5,6,9.5z
			"/>
	</g>
	<g>
		<path class="st0" d="M8,7.5H4C3.724,7.5,3.5,7.276,3.5,7S3.724,6.5,4,6.5h4c0.276,0,0.5,0.224,0.5,0.5S8.276,7.5,8,7.5z"/>
	</g>
	<g>
		<polygon class="st1" points="36.25,18 31.75,11 36.25,4 40.75,11 		"/>
		<path class="st0" d="M36.25,18.5c-0.17,0-0.328-0.086-0.421-0.229l-4.5-7c-0.105-0.165-0.105-0.376,0-0.541l4.5-7
			c0.186-0.286,0.656-0.286,0.842,0l4.5,7c0.105,0.165,0.105,0.376,0,0.541l-4.5,7C36.578,18.414,36.42,18.5,36.25,18.5z M32.345,11
			l3.905,6.075L40.155,11L36.25,4.925L32.345,11z"/>
	</g>
	<g>
		<path class="st0" d="M36.25,13.5c-0.069,0-0.139-0.014-0.203-0.043l-4.5-2C31.366,11.376,31.25,11.198,31.25,11
			s0.116-0.376,0.297-0.457l4.5-2c0.129-0.058,0.277-0.058,0.406,0l4.5,2c0.181,0.081,0.297,0.259,0.297,0.457
			s-0.116,0.376-0.297,0.457l-4.5,2C36.389,13.486,36.319,13.5,36.25,13.5z M32.981,11l3.269,1.453L39.519,11L36.25,9.547L32.981,11
			z"/>
	</g>
	<g>
		<path class="st0" d="M36.25,18c-0.276,0-0.5-0.224-0.5-0.5v-13c0-0.276,0.224-0.5,0.5-0.5s0.5,0.224,0.5,0.5v13
			C36.75,17.776,36.526,18,36.25,18z"/>
	</g>
	<g>
		<circle class="st3" cx="23.75" cy="24" r="10"/>
		<path class="st0" d="M23.75,34.5c-5.79,0-10.5-4.71-10.5-10.5s4.71-10.5,10.5-10.5s10.5,4.71,10.5,10.5S29.54,34.5,23.75,34.5z
			 M23.75,14.5c-5.238,0-9.5,4.262-9.5,9.5s4.262,9.5,9.5,9.5s9.5-4.262,9.5-9.5S28.988,14.5,23.75,14.5z"/>
	</g>
	<g>
		<path class="st0" d="M21.25,20.5h-1.5c-0.276,0-0.5-0.224-0.5-0.5s0.224-0.5,0.5-0.5h1.5c0.276,0,0.5,0.224,0.5,0.5
			S21.526,20.5,21.25,20.5z"/>
	</g>
	<g>
		<path class="st0" d="M21.25,28.5h-1.5c-0.276,0-0.5-0.224-0.5-0.5s0.224-0.5,0.5-0.5h1.5c0.276,0,0.5,0.224,0.5,0.5
			S21.526,28.5,21.25,28.5z"/>
	</g>
	<g>
		<path class="st0" d="M22.75,20.5c-0.276,0-0.5-0.224-0.5-0.5v-2c0-0.276,0.224-0.5,0.5-0.5s0.5,0.224,0.5,0.5v2
			C23.25,20.276,23.026,20.5,22.75,20.5z"/>
	</g>
	<g>
		<path class="st0" d="M24.75,20.5c-0.276,0-0.5-0.224-0.5-0.5v-2c0-0.276,0.224-0.5,0.5-0.5s0.5,0.224,0.5,0.5v2
			C25.25,20.276,25.026,20.5,24.75,20.5z"/>
	</g>
	<g>
		<path class="st0" d="M24.75,24.5h-3.5c-0.276,0-0.5-0.224-0.5-0.5v-4c0-0.276,0.224-0.5,0.5-0.5h3.5c1.379,0,2.5,1.122,2.5,2.5
			S26.129,24.5,24.75,24.5z M21.75,23.5h3c0.827,0,1.5-0.673,1.5-1.5s-0.673-1.5-1.5-1.5h-3V23.5z"/>
	</g>
	<g>
		<path class="st0" d="M25.75,28.5h-4.5c-0.276,0-0.5-0.224-0.5-0.5v-4c0-0.276,0.224-0.5,0.5-0.5h4.5c1.379,0,2.5,1.122,2.5,2.5
			S27.129,28.5,25.75,28.5z M21.75,27.5h4c0.827,0,1.5-0.673,1.5-1.5s-0.673-1.5-1.5-1.5h-4V27.5z"/>
	</g>
	<g>
		<path class="st0" d="M22.75,30.5c-0.276,0-0.5-0.224-0.5-0.5v-2c0-0.276,0.224-0.5,0.5-0.5s0.5,0.224,0.5,0.5v2
			C23.25,30.276,23.026,30.5,22.75,30.5z"/>
	</g>
	<g>
		<path class="st0" d="M24.75,30.5c-0.276,0-0.5-0.224-0.5-0.5v-2c0-0.276,0.224-0.5,0.5-0.5s0.5,0.224,0.5,0.5v2
			C25.25,30.276,25.026,30.5,24.75,30.5z"/>
	</g>
	<g>
		<path class="st0" d="M7.5,58.5H5c-0.276,0-0.5-0.224-0.5-0.5s0.224-0.5,0.5-0.5h2.5C7.776,57.5,8,57.724,8,58S7.776,58.5,7.5,58.5
			z"/>
	</g>
	<g>
		<path class="st0" d="M12.5,58.5H10c-0.276,0-0.5-0.224-0.5-0.5s0.224-0.5,0.5-0.5h2.5c0.276,0,0.5,0.224,0.5,0.5
			S12.776,58.5,12.5,58.5z"/>
	</g>
	<g>
		<path class="st0" d="M17.5,58.5H15c-0.276,0-0.5-0.224-0.5-0.5s0.224-0.5,0.5-0.5h2.5c0.276,0,0.5,0.224,0.5,0.5
			S17.776,58.5,17.5,58.5z"/>
	</g>
	<g>
		<path class="st0" d="M22.5,58.5H20c-0.276,0-0.5-0.224-0.5-0.5s0.224-0.5,0.5-0.5h2.5c0.276,0,0.5,0.224,0.5,0.5
			S22.776,58.5,22.5,58.5z"/>
	</g>
	<g>
		<path class="st0" d="M27.5,58.5H25c-0.276,0-0.5-0.224-0.5-0.5s0.224-0.5,0.5-0.5h2.5c0.276,0,0.5,0.224,0.5,0.5
			S27.776,58.5,27.5,58.5z"/>
	</g>
	<g>
		<path class="st0" d="M32.5,58.5H30c-0.276,0-0.5-0.224-0.5-0.5s0.224-0.5,0.5-0.5h2.5c0.276,0,0.5,0.224,0.5,0.5
			S32.776,58.5,32.5,58.5z"/>
	</g>
	<g>
		<path class="st0" d="M37.5,58.5H35c-0.276,0-0.5-0.224-0.5-0.5s0.224-0.5,0.5-0.5h2.5c0.276,0,0.5,0.224,0.5,0.5
			S37.776,58.5,37.5,58.5z"/>
	</g>
	<g>
		<path class="st0" d="M42.5,58.5H40c-0.276,0-0.5-0.224-0.5-0.5s0.224-0.5,0.5-0.5h2.5c0.276,0,0.5,0.224,0.5,0.5
			S42.776,58.5,42.5,58.5z"/>
	</g>
	<g>
		<path class="st0" d="M47.5,58.5H45c-0.276,0-0.5-0.224-0.5-0.5s0.224-0.5,0.5-0.5h2.5c0.276,0,0.5,0.224,0.5,0.5
			S47.776,58.5,47.5,58.5z"/>
	</g>
	<g>
		<path class="st0" d="M52.5,58.5H50c-0.276,0-0.5-0.224-0.5-0.5s0.224-0.5,0.5-0.5h2.5c0.276,0,0.5,0.224,0.5,0.5
			S52.776,58.5,52.5,58.5z"/>
	</g>
	<g>
		<path class="st0" d="M52.5,32.5c-0.276,0-0.5-0.224-0.5-0.5v-2.5c0-1.103-0.897-2-2-2h-2.5c-0.276,0-0.5-0.224-0.5-0.5
			s0.224-0.5,0.5-0.5H50c1.654,0,3,1.346,3,3V32C53,32.276,52.776,32.5,52.5,32.5z"/>
	</g>
</g>
</svg>
