<svg id="Layer_1" data-name="Layer 1" xmlns="http://www.w3.org/2000/svg" viewBox="0 0 163.16 215.08"><defs><style>.cls-1{fill:#382b73;}.cls-2{fill:#a72973;}.cls-3{fill:#e43d91;}.cls-4{fill:#136da0;}.cls-5{fill:#1caee4;}.cls-6{fill:#009add;}.cls-7{fill:#27c1e6;}.cls-8{fill:#fff;}.cls-9{fill:#e6e7e8;}.cls-10{fill:#ef5a9d;}.cls-11{fill:#f06ea9;}.cls-12{fill:#bcbec0;}</style></defs><title>eth wallet logo</title><path class="cls-1" d="M454.21,240.24V210.63a8.19,8.19,0,0,0-8.17-8.17h-6.78v-8.17a8.13,8.13,0,0,0-.93-3.79h0l0,0-.13-.22-.23-.38-.15-.22c-.12-.17-.25-.35-.38-.51l-.13-.15-.33-.36-.18-.18-.4-.36-.12-.11c-.17-.14-.34-.26-.52-.39l-.19-.13-.45-.27-.16-.09q-.3-.16-.61-.3l-.17-.07-.52-.19-.18-.06c-.23-.07-.45-.13-.69-.18l-.12,0-.61-.09-.2,0c-.25,0-.49,0-.75,0H429.4a56.86,56.86,0,0,0,2.23-15.8v-9.59q0-2.5-.21-5a56.54,56.54,0,0,0-13.08-31.57,55.89,55.89,0,0,0-7-7,56.47,56.47,0,0,0-31.57-13.08q-1-.09-2.1-.14-1.42-.07-2.86-.07-2.5,0-5,.22a56.48,56.48,0,0,0-31.57,13.08h0a56.29,56.29,0,0,0-7,7h0a56.48,56.48,0,0,0-13.08,31.57h0v0q-.21,2.44-.21,4.92v9.59a56.85,56.85,0,0,0,2.23,15.8H303.56a8.17,8.17,0,0,0-8.17,8.17h0v8.17h0v99.67a8.17,8.17,0,0,0,8.17,8.17H446a8.17,8.17,0,0,0,8.17-8.17V275.77a6.52,6.52,0,0,0,4.35-6.14V246.38A6.52,6.52,0,0,0,454.21,240.24Z" transform="translate(-295.39 -95.21)"/><rect class="cls-2" y="82.21" width="143.86" height="107.84" rx="18.8" ry="18.8"/><path class="cls-3" d="M298.84,280.54v-94.6a5.07,5.07,0,0,1,5.07-5.07H434.54a8.13,8.13,0,0,1,3.79.93,8.17,8.17,0,0,0-7.24-4.38H303.56a8.17,8.17,0,0,0-8.17,8.17v91.5a8.17,8.17,0,0,0,4.38,7.24A8.13,8.13,0,0,1,298.84,280.54Z" transform="translate(-295.39 -95.21)"/><path class="cls-4" d="M431.62,152v9.59a56.83,56.83,0,1,1-113.65,0V152h.81q.43-2.52,1.07-5a56.84,56.84,0,0,1,50-42.07q2.45-.21,5-.21c1.12,0,2.23,0,3.33.1.54,0,1.08.07,1.62.11a56.89,56.89,0,0,1,50,42.07q.65,2.44,1.07,5Z" transform="translate(-295.39 -95.21)"/><path class="cls-5" d="M431.62,152c0,.75,0,1.49,0,2.23q-.05,1.37-.17,2.73a56.84,56.84,0,0,1-51.66,51.66c-1.64.14-3.29.22-5,.22s-3.32-.07-5-.22A56.83,56.83,0,0,1,318.19,157c-.14-1.63-.22-3.28-.22-5s.07-3.32.22-5a56.48,56.48,0,0,1,13.08-31.57,55.92,55.92,0,0,1,7-7,56.48,56.48,0,0,1,31.57-13.08q2.45-.22,5-.22,1.43,0,2.86.07,1,.05,2.1.14a56.47,56.47,0,0,1,31.57,13.08,55.89,55.89,0,0,1,7,7,56.54,56.54,0,0,1,13.08,31.57Q431.63,149.53,431.62,152Z" transform="translate(-295.39 -95.21)"/><path class="cls-6" d="M346.19,116.43a46.09,46.09,0,0,0-7,7l-7.92-7.92a56.29,56.29,0,0,1,7-7Z" transform="translate(-295.39 -95.21)"/><path class="cls-6" d="M329.12,152a45.66,45.66,0,0,0,.27,5h-11.2q-.22-2.45-.22-5t.22-5h11.2A45.66,45.66,0,0,0,329.12,152Z" transform="translate(-295.39 -95.21)"/><path class="cls-6" d="M418.33,115.52l-1.11,1.11-3.56,3.55-3.26,3.25-.16-.19-.41-.5-.42-.49c-.23-.27-.46-.53-.7-.8l-.5-.55c-.37-.4-.74-.79-1.12-1.16l-.89-.86-.83-.76q-.38-.35-.77-.68l-.55-.47-.43-.36-.23-.19,2.42-2.41,4.18-4.18,1.32-1.32A55.89,55.89,0,0,1,418.33,115.52Z" transform="translate(-295.39 -95.21)"/><path class="cls-6" d="M379.75,95.43v11.2l-1.1-.1-.29,0-1-.06h-.13l-1.23-.05-1.25,0-1.25,0-1.23.05h-.13l-1.06.07-.18,0-1.1.1V95.43q2.45-.22,5-.22,1.43,0,2.86.07Q378.7,95.34,379.75,95.43Z" transform="translate(-295.39 -95.21)"/><path class="cls-6" d="M431.62,152c0,.75,0,1.49,0,2.23q-.05,1.37-.17,2.73h-11.2a.39.39,0,0,0,0-.07c0-.26.05-.51.07-.77q0-.15,0-.3a1.1,1.1,0,0,0,0-.12s0-.07,0-.1a.65.65,0,0,0,0-.09c0-.34,0-.69.07-1a.46.46,0,0,0,0-.11c0-.2,0-.4,0-.6a1.28,1.28,0,0,0,0-.18c0-.11,0-.22,0-.32s0-.46,0-.7,0-.37,0-.56c0-.42,0-.83,0-1.25s0-.82-.05-1.23a.7.7,0,0,0,0-.13c0-.36,0-.71-.07-1.06,0-.06,0-.12,0-.18,0-.37-.07-.74-.1-1.1h11.2Q431.63,149.53,431.62,152Z" transform="translate(-295.39 -95.21)"/><path class="cls-6" d="M418.33,188.56a55.93,55.93,0,0,1-7,7l-7.92-7.92a46.09,46.09,0,0,0,7-7Z" transform="translate(-295.39 -95.21)"/><path class="cls-6" d="M346.19,187.65l-7.92,7.92a56.29,56.29,0,0,1-7-7l7.92-7.92A46.09,46.09,0,0,0,346.19,187.65Z" transform="translate(-295.39 -95.21)"/><path class="cls-6" d="M379.75,197.44v11.2q-2.45.22-5,.22t-5-.22v-11.2a45.82,45.82,0,0,0,9.91,0Z" transform="translate(-295.39 -95.21)"/><path class="cls-7" d="M431.62,152c0,.4,0,.8,0,1.2,0-.4,0-.8,0-1.2,0-.86-.08-1.71-.15-2.56s-.16-1.6-.26-2.4a56.54,56.54,0,0,0-12.82-29.17c-.37-.43-.73-.86-1.11-1.28a56.43,56.43,0,0,0-5.9-5.72c-.43-.37-.87-.73-1.32-1.07a56.49,56.49,0,0,0-30.25-12q-1-.09-2.1-.14-1.42-.07-2.86-.07-2.5,0-5,.21a56.49,56.49,0,0,0-30.25,12c-.45.35-.89.71-1.32,1.07a56,56,0,0,0-5.9,5.73c-.38.42-.75.85-1.11,1.28a56.51,56.51,0,0,0-12.82,29.17q-.15,1.19-.26,2.4T318,152c0,.4,0,.8,0,1.2,0-.4,0-.8,0-1.2q0-2.5.22-5a56.48,56.48,0,0,1,13.08-31.57,55.92,55.92,0,0,1,7-7,56.48,56.48,0,0,1,31.57-13.08q2.45-.22,5-.22,1.43,0,2.86.07,1,.05,2.1.14a56.47,56.47,0,0,1,31.57,13.08,55.89,55.89,0,0,1,7,7,56.54,56.54,0,0,1,13.08,31.57Q431.63,149.53,431.62,152Z" transform="translate(-295.39 -95.21)"/><circle class="cls-6" cx="79.41" cy="56.83" r="45.68"/><path class="cls-7" d="M374.8,197.71a45.68,45.68,0,0,1-45.66-44.48q0,.6,0,1.2a45.68,45.68,0,1,0,91.35,0q0-.6,0-1.2A45.68,45.68,0,0,1,374.8,197.71Z" transform="translate(-295.39 -95.21)"/><path class="cls-4" d="M374.8,111.15a45.68,45.68,0,0,1,45.61,43.28q.06-1.19.06-2.4a45.68,45.68,0,1,0-91.35,0q0,1.21.06,2.4A45.68,45.68,0,0,1,374.8,111.15Z" transform="translate(-295.39 -95.21)"/><polygon class="cls-4" points="56.88 66.58 56.62 66.8 79.41 99.55 102.19 67.72 79.41 80.39 56.88 66.58"/><polygon class="cls-4" points="102.19 62.86 79.41 25.34 56.62 62.86 79.41 76.84 102.19 62.86"/><polygon class="cls-8" points="79.41 73.14 56.62 59.16 79.41 21.64 102.19 59.16 79.41 73.14"/><polygon class="cls-8" points="79.41 78 56.88 64.18 56.62 64.4 79.41 95.85 102.19 64.02 79.41 78"/><polygon class="cls-9" points="79.41 73.14 79.41 21.64 102.19 59.16 79.41 73.14"/><polygon class="cls-9" points="79.41 78 79.41 95.85 102.19 64.02 79.41 78"/><path class="cls-10" d="M454.21,201.93v91.5A8.17,8.17,0,0,1,446,301.6H303.56a8.17,8.17,0,0,1-8.17-8.17V193.76H446A8.17,8.17,0,0,1,454.21,201.93Z" transform="translate(-295.39 -95.21)"/><path class="cls-11" d="M446,193.76H295.39V197H446a8.17,8.17,0,0,1,8.17,8.17v-3.27A8.17,8.17,0,0,0,446,193.76Z" transform="translate(-295.39 -95.21)"/><path class="cls-3" d="M446,295.06H303.56a8.17,8.17,0,0,1-8.17-8.17v6.54a8.17,8.17,0,0,0,8.17,8.17H446a8.17,8.17,0,0,0,8.17-8.17v-6.54A8.17,8.17,0,0,1,446,295.06Z" transform="translate(-295.39 -95.21)"/><path class="cls-3" d="M454.21,235.89v35.54a6.45,6.45,0,0,1-2.17.37H411.57a5.56,5.56,0,0,1-5.56-5.56V241.08a5.56,5.56,0,0,1,5.56-5.56H452A6.45,6.45,0,0,1,454.21,235.89Z" transform="translate(-295.39 -95.21)"/><path class="cls-12" d="M123.41,139.23h24.75a15,15,0,0,1,15,15v3a15,15,0,0,1-15,15H123.41a12.79,12.79,0,0,1-12.79-12.79V152A12.79,12.79,0,0,1,123.41,139.23Z"/><path class="cls-8" d="M123.41,136h24.75a15,15,0,0,1,15,15v3a15,15,0,0,1-15,15H123.41a12.79,12.79,0,0,1-12.79-12.79v-7.44A12.79,12.79,0,0,1,123.41,136Z"/><circle class="cls-5" cx="127.77" cy="152.47" r="8.52"/><path class="cls-7" d="M423.16,241a8.52,8.52,0,0,1,8.47,7.59,8.61,8.61,0,0,0,.05-.93,8.52,8.52,0,1,0-17,.93A8.52,8.52,0,0,1,423.16,241Z" transform="translate(-295.39 -95.21)"/><path class="cls-6" d="M423.16,252.39a8.52,8.52,0,0,1-8.3-6.61,8.52,8.52,0,1,0,16.61,0A8.52,8.52,0,0,1,423.16,252.39Z" transform="translate(-295.39 -95.21)"/><path class="cls-3" d="M311.08,193.76H295.39v99.67a8.17,8.17,0,0,0,8.17,8.17h7.52Z" transform="translate(-295.39 -95.21)"/><path class="cls-3" d="M304.37,180.88h-5.53v5.53h0a5.53,5.53,0,0,1,5.53-5.53Z" transform="translate(-295.39 -95.21)"/><path class="cls-3" d="M298.84,188.23v5.53h5.53a5.53,5.53,0,0,1-5.53-5.53Z" transform="translate(-295.39 -95.21)"/><rect class="cls-11" x="15.69" y="114.08" width="1.96" height="1.63"/><path class="cls-11" d="M448.27,210.92h-4v-1.63h4Zm-8,0h-4v-1.63h4Zm-8,0h-4v-1.63h4Zm-8,0h-4v-1.63h4Zm-8,0h-4v-1.63h4Zm-8,0h-4v-1.63h4Zm-8,0h-4v-1.63h4Zm-8,0h-4v-1.63h4Zm-8,0h-4v-1.63h4Zm-8,0h-4v-1.63h4Zm-8,0h-4v-1.63h4Zm-8,0h-4v-1.63h4Zm-8,0h-4v-1.63h4Zm-8,0h-4v-1.63h4Zm-8,0h-4v-1.63h4Zm-8,0h-4v-1.63h4Zm-8,0h-4v-1.63h4Z" transform="translate(-295.39 -95.21)"/><rect class="cls-11" x="156.85" y="114.08" width="1.96" height="1.63"/><rect class="cls-11" x="15.69" y="189.23" width="1.96" height="1.63"/><path class="cls-11" d="M448.27,286.08h-4v-1.63h4Zm-8,0h-4v-1.63h4Zm-8,0h-4v-1.63h4Zm-8,0h-4v-1.63h4Zm-8,0h-4v-1.63h4Zm-8,0h-4v-1.63h4Zm-8,0h-4v-1.63h4Zm-8,0h-4v-1.63h4Zm-8,0h-4v-1.63h4Zm-8,0h-4v-1.63h4Zm-8,0h-4v-1.63h4Zm-8,0h-4v-1.63h4Zm-8,0h-4v-1.63h4Zm-8,0h-4v-1.63h4Zm-8,0h-4v-1.63h4Zm-8,0h-4v-1.63h4Zm-8,0h-4v-1.63h4Z" transform="translate(-295.39 -95.21)"/><rect class="cls-11" x="156.85" y="189.23" width="1.96" height="1.63"/></svg>