<?xml version="1.0" encoding="utf-8"?>
<!-- Generator: Adobe Illustrator 20.1.0, SVG Export Plug-In . SVG Version: 6.00 Build 0)  -->
<svg version="1.1" id="Layer_1" xmlns="http://www.w3.org/2000/svg" xmlns:xlink="http://www.w3.org/1999/xlink" x="0px" y="0px"
	 viewBox="0 0 2845 1500" style="enable-background:new 0 0 2845 1500;" xml:space="preserve">
<style type="text/css">
	.st0{fill:#CAE9E3;}
	.st1{fill:#75CABB;}
	.st2{fill:#8C78B7;}
	.st3{fill:#FFCE47;}
	.st4{fill:#AED588;}
	.st5{opacity:0.1;}
	.st6{fill:#F5C24A;}
	.st7{fill:#DD9C42;}
	.st8{fill:#FFFFFF;}
	.st9{fill:#F1A948;}
	.st10{opacity:0.2;}
	.st11{fill:#F1B25C;}
	.st12{fill:#A991C4;}
	.st13{fill:#EEDBC7;}
	.st14{fill:#0098CE;}
	.st15{fill:#F9A05C;}
	.st16{fill:#594A42;}
	.st17{fill:#CFC7BE;}
	.st18{fill:#9F968C;}
	.st19{fill:#E4E7E3;}
	.st20{fill:#E8E8E8;}
	.st21{fill:#D4D4D4;}
	.st22{opacity:0.5;fill:#FFFFFF;}
	.st23{fill:#787879;}
	.st24{opacity:0.5;}
	.st25{fill:#B0B3C2;}
	.st26{fill:#F498C0;}
	.st27{fill:#F26D78;}
	.st28{fill:#FFC94D;}
	.st29{fill:#7B736C;}
</style>
<g>
	<g>
		<g>
			<path class="st0" d="M1440.3,1237.4c-65.8,0-129.6-12.9-189.7-38.3c-58-24.5-110.1-59.7-154.9-104.4
				c-44.8-44.8-79.9-96.9-104.4-154.9c-25.4-60.1-38.3-123.9-38.3-189.7s12.9-129.6,38.3-189.7c24.5-58,59.7-110.2,104.4-154.9
				c44.8-44.8,96.9-79.9,154.9-104.4c60.1-25.4,123.9-38.3,189.7-38.3c65.8,0,129.6,12.9,189.7,38.3c58,24.5,110.2,59.7,154.9,104.4
				c44.8,44.8,79.9,96.9,104.4,154.9c25.4,60.1,38.3,123.9,38.3,189.7s-12.9,129.6-38.3,189.7c-24.5,58-59.7,110.2-104.4,154.9
				c-44.8,44.8-96.9,79.9-154.9,104.4C1569.9,1224.5,1506.1,1237.4,1440.3,1237.4z M1440.3,263.8C1172.2,263.8,954,481.9,954,750
				c0,268.1,218.1,486.2,486.2,486.2s486.2-218.1,486.2-486.2C1926.5,481.9,1708.4,263.8,1440.3,263.8z"/>
		</g>
		<g>
			<path class="st0" d="M1440.4,1294.1c-2.2,0-4.4,0-6.6,0l0-2.2c2.2,0,4.3,0,6.5,0c2.2,0,4.4,0,6.7,0l0,2.2
				C1444.9,1294.1,1442.6,1294.1,1440.4,1294.1z M1420.6,1293.7c-4.4-0.2-8.8-0.4-13.2-0.6l0.1-2.2c4.4,0.3,8.8,0.5,13.2,0.6
				L1420.6,1293.7z M1460.3,1293.7l-0.1-2.2c4.4-0.2,8.8-0.4,13.2-0.6l0.1,2.2C1469.2,1293.4,1464.7,1293.6,1460.3,1293.7z
				 M1394.1,1292.2c-4.4-0.4-8.8-0.8-13.2-1.3l0.2-2.2c4.3,0.5,8.8,0.9,13.1,1.3L1394.1,1292.2z M1486.8,1292.1l-0.2-2.2
				c4.4-0.4,8.8-0.8,13.1-1.3l0.2,2.2C1495.6,1291.3,1491.1,1291.8,1486.8,1292.1z M1367.8,1289.3c-4.4-0.6-8.8-1.2-13.1-1.9
				l0.3-2.2c4.3,0.7,8.7,1.3,13.1,1.9L1367.8,1289.3z M1513.1,1289.3l-0.3-2.2c4.3-0.6,8.7-1.2,13.1-1.9l0.3,2.2
				C1521.9,1288,1517.5,1288.7,1513.1,1289.3z M1341.6,1285.2c-4.3-0.8-8.7-1.6-13-2.5l0.4-2.2c4.3,0.9,8.6,1.7,12.9,2.5
				L1341.6,1285.2z M1539.3,1285.1l-0.4-2.2c4.3-0.8,8.7-1.6,12.9-2.5l0.5,2.2C1548,1283.5,1543.6,1284.3,1539.3,1285.1z
				 M1315.7,1279.8c-4.3-1-8.6-2.1-12.9-3.2l0.6-2.1c4.2,1.1,8.5,2.2,12.8,3.2L1315.7,1279.8z M1565.2,1279.7l-0.5-2.1
				c4.3-1,8.6-2.1,12.8-3.2l0.6,2.1C1573.8,1277.6,1569.5,1278.7,1565.2,1279.7z M1290.1,1273.1c-4.2-1.2-8.5-2.5-12.7-3.8l0.7-2.1
				c4.2,1.3,8.4,2.6,12.6,3.8L1290.1,1273.1z M1590.8,1273l-0.6-2.1c4.2-1.2,8.5-2.5,12.6-3.8l0.7,2.1
				C1599.3,1270.5,1595.1,1271.8,1590.8,1273z M1264.7,1265.2c-4.2-1.4-8.4-2.9-12.5-4.4l0.8-2.1c4.1,1.5,8.3,3,12.5,4.4
				L1264.7,1265.2z M1616.1,1265.1l-0.7-2.1c4.1-1.4,8.3-2.9,12.4-4.4l0.8,2.1C1624.5,1262.1,1620.3,1263.6,1616.1,1265.1z
				 M1239.8,1256c-4.1-1.6-8.2-3.3-12.3-5.1l0.9-2c4,1.7,8.1,3.4,12.2,5L1239.8,1256z M1641,1255.9l-0.8-2c4.1-1.6,8.2-3.3,12.2-5
				l0.9,2C1649.2,1252.6,1645,1254.3,1641,1255.9z M1215.3,1245.6c-4-1.8-8.1-3.7-12-5.6l1-2c3.9,1.9,8,3.8,12,5.6L1215.3,1245.6z
				 M1665.3,1245.5l-0.9-2c4-1.8,8-3.7,11.9-5.6l1,2C1673.3,1241.8,1669.3,1243.7,1665.3,1245.5z M1689,1234l-1-2
				c3.9-2,7.8-4.1,11.6-6.2l1.1,1.9C1696.9,1229.9,1692.9,1232,1689,1234z M1191.4,1234c-3.9-2-7.8-4.1-11.7-6.2l1.1-1.9
				c3.9,2.1,7.8,4.2,11.7,6.2L1191.4,1234z M1712.2,1221.4l-1.1-1.9c3.8-2.2,7.6-4.5,11.3-6.7l1.1,1.9
				C1719.9,1216.9,1716,1219.2,1712.2,1221.4z M1168.1,1221.3c-3.8-2.2-7.7-4.5-11.4-6.8l1.2-1.9c3.7,2.3,7.5,4.6,11.4,6.8
				L1168.1,1221.3z M1734.8,1207.6l-1.2-1.9c3.7-2.4,7.4-4.8,11-7.3l1.2,1.8C1742.2,1202.7,1738.5,1205.2,1734.8,1207.6z
				 M1145.5,1207.4c-3.7-2.4-7.4-4.9-11.1-7.3l1.2-1.8c3.6,2.5,7.3,4.9,11,7.3L1145.5,1207.4z M1756.7,1192.7l-1.3-1.8
				c3.5-2.5,7.1-5.2,10.6-7.8l1.3,1.8C1763.8,1187.5,1760.2,1190.2,1756.7,1192.7z M1123.6,1192.5c-3.6-2.6-7.2-5.2-10.7-7.9
				l1.3-1.8c3.5,2.6,7.1,5.3,10.6,7.8L1123.6,1192.5z M1777.8,1176.8l-1.4-1.7c3.4-2.7,6.9-5.5,10.2-8.3l1.4,1.7
				C1784.7,1171.2,1781.2,1174.1,1777.8,1176.8z M1102.4,1176.5c-3.5-2.7-6.9-5.6-10.3-8.4l1.4-1.7c3.4,2.8,6.8,5.6,10.2,8.3
				L1102.4,1176.5z M1798.2,1159.8l-1.5-1.7c3.3-2.9,6.6-5.8,9.8-8.8l1.5,1.6C1804.8,1154,1801.5,1156.9,1798.2,1159.8z
				 M1082.1,1159.5c-3.3-2.9-6.6-5.9-9.9-8.8l1.5-1.6c3.2,3,6.5,5.9,9.8,8.8L1082.1,1159.5z M1817.7,1141.9l-1.5-1.6
				c3.1-3,6.3-6.1,9.4-9.3l1.6,1.5C1824,1135.8,1820.8,1138.9,1817.7,1141.9z M1062.6,1141.6c-3.2-3.1-6.3-6.2-9.4-9.3l1.6-1.5
				c3.1,3.1,6.2,6.2,9.4,9.3L1062.6,1141.6z M1836.3,1123.1l-1.6-1.5c3-3.2,6-6.5,8.9-9.7l1.6,1.5
				C1842.3,1116.6,1839.3,1119.9,1836.3,1123.1z M1043.9,1122.8c-3-3.2-6-6.5-9-9.8l1.6-1.5c2.9,3.2,5.9,6.5,8.9,9.7L1043.9,1122.8z
				 M1854,1103.4l-1.7-1.4c2.8-3.3,5.7-6.7,8.5-10.1l1.7,1.4C1859.7,1096.6,1856.9,1100,1854,1103.4z M1026.3,1103
				c-2.9-3.4-5.7-6.8-8.5-10.2l1.7-1.4c2.8,3.4,5.6,6.8,8.4,10.1L1026.3,1103z M1870.7,1082.8l-1.7-1.4c2.7-3.5,5.4-7,8-10.5
				l1.8,1.3C1876.1,1075.8,1873.4,1079.3,1870.7,1082.8z M1009.6,1082.5c-2.7-3.5-5.4-7-8-10.6l1.8-1.3c2.6,3.5,5.2,7,7.9,10.5
				L1009.6,1082.5z M1886.5,1061.5l-1.8-1.3c2.5-3.6,5-7.3,7.4-10.9l1.8,1.2C1891.5,1054.2,1889,1057.8,1886.5,1061.5z
				 M993.9,1061.2c-2.5-3.6-5-7.3-7.4-10.9l1.8-1.2c2.4,3.7,4.9,7.3,7.4,10.9L993.9,1061.2z M1901.1,1039.4l-1.9-1.2
				c2.3-3.7,4.7-7.5,6.9-11.3l1.9,1.1C1905.8,1031.8,1903.5,1035.6,1901.1,1039.4z M979.3,1039.1c-2.3-3.7-4.7-7.5-6.9-11.3l1.9-1.1
				c2.2,3.7,4.5,7.5,6.9,11.2L979.3,1039.1z M1914.7,1016.6l-1.9-1.1c2.1-3.8,4.3-7.7,6.3-11.6l1.9,1
				C1919,1008.8,1916.9,1012.7,1914.7,1016.6z M965.8,1016.4c-2.2-3.8-4.3-7.7-6.3-11.6l1.9-1c2,3.8,4.2,7.7,6.3,11.6L965.8,1016.4z
				 M1927.2,993.1l-2-1c2-3.9,3.9-7.9,5.8-11.9l2,0.9C1931.1,985.2,1929.1,989.2,1927.2,993.1z M953.4,993.1
				c-2-3.9-3.9-7.9-5.8-11.9l2-0.9c1.9,3.9,3.8,7.9,5.7,11.8L953.4,993.1z M942.1,969.2c-1.8-4-3.5-8.1-5.2-12.1l2-0.8
				c1.7,4,3.4,8.1,5.2,12.1L942.1,969.2z M1938.5,969.1l-2-0.9c1.8-4,3.5-8.1,5.2-12.2l2,0.8C1942,960.9,1940.2,965,1938.5,969.1z
				 M932.1,944.7c-1.6-4.1-3.1-8.3-4.6-12.4l2.1-0.7c1.5,4.1,3,8.3,4.6,12.4L932.1,944.7z M1948.6,944.5l-2.1-0.8
				c1.6-4.1,3.1-8.3,4.6-12.4l2.1,0.7C1951.7,936.2,1950.1,940.4,1948.6,944.5z M923.2,919.7c-1.4-4.2-2.7-8.4-4-12.6l2.1-0.6
				c1.3,4.2,2.6,8.4,4,12.6L923.2,919.7z M1957.5,919.5l-2.1-0.7c1.4-4.2,2.7-8.4,4-12.6l2.1,0.6
				C1960.2,911,1958.8,915.3,1957.5,919.5z M915.5,894.4c-1.2-4.3-2.3-8.6-3.3-12.8l2.1-0.5c1,4.2,2.2,8.5,3.3,12.8L915.5,894.4z
				 M1965.1,894l-2.1-0.6c1.2-4.2,2.3-8.5,3.3-12.8l2.1,0.5C1967.4,885.5,1966.3,889.8,1965.1,894z M909.2,868.7
				c-1-4.3-1.9-8.7-2.7-13l2.2-0.4c0.8,4.3,1.8,8.6,2.7,12.9L909.2,868.7z M1971.5,868.3l-2.2-0.5c1-4.3,1.9-8.6,2.7-12.9l2.2,0.4
				C1973.3,859.6,1972.4,864,1971.5,868.3z M904,842.7c-0.7-4.3-1.4-8.7-2.1-13.1l2.2-0.3c0.6,4.3,1.3,8.7,2.1,13L904,842.7z
				 M1976.6,842.3l-2.2-0.4c0.7-4.3,1.4-8.7,2.1-13l2.2,0.3C1978,833.6,1977.3,838,1976.6,842.3z M900.2,816.4
				c-0.5-4.4-1-8.8-1.4-13.2l2.2-0.2c0.4,4.3,0.9,8.8,1.4,13.1L900.2,816.4z M1980.4,816.1l-2.2-0.3c0.5-4.3,1-8.8,1.4-13.1l2.2,0.2
				C1981.4,807.3,1980.9,811.7,1980.4,816.1z M897.6,790.1c-0.3-4.4-0.6-8.8-0.8-13.2l2.2-0.1c0.2,4.4,0.5,8.8,0.8,13.2L897.6,790.1
				z M1982.9,789.7l-2.2-0.2c0.3-4.3,0.6-8.8,0.8-13.2l2.2,0.1C1983.5,780.9,1983.2,785.4,1982.9,789.7z M896.4,763.6
				c-0.1-4.4-0.2-8.9-0.2-13.2l2.2,0c0,4.3,0.1,8.8,0.2,13.2L896.4,763.6z M1984.2,763.3l-2.2-0.1c0.1-4.4,0.2-8.8,0.2-13.2v-0.7
				h2.2v0.7C1984.4,754.4,1984.3,758.9,1984.2,763.3z M898.5,737.2l-2.2-0.1c0.1-4.4,0.3-8.8,0.5-13.2l2.2,0.1
				C898.8,728.4,898.6,732.8,898.5,737.2z M1982,736.1c-0.1-4.4-0.3-8.8-0.5-13.2l2.2-0.1c0.2,4.4,0.4,8.9,0.5,13.2L1982,736.1z
				 M899.8,710.8l-2.2-0.2c0.3-4.4,0.7-8.8,1.1-13.2l2.2,0.2C900.5,702,900.1,706.5,899.8,710.8z M1980.7,709.7
				c-0.3-4.3-0.7-8.8-1.1-13.1l2.2-0.2c0.4,4.4,0.8,8.8,1.1,13.2L1980.7,709.7z M902.3,684.5l-2.2-0.3c0.5-4.4,1.1-8.8,1.7-13.1
				l2.2,0.3C903.4,675.8,902.8,680.2,902.3,684.5z M1978.1,683.5c-0.5-4.4-1.1-8.8-1.8-13.1l2.2-0.3c0.6,4.3,1.2,8.8,1.8,13.1
				L1978.1,683.5z M906.1,658.4l-2.2-0.4c0.7-4.3,1.5-8.7,2.4-13l2.2,0.4C907.6,649.8,906.8,654.2,906.1,658.4z M1974.3,657.4
				c-0.7-4.3-1.5-8.7-2.4-13l2.2-0.4c0.9,4.3,1.7,8.7,2.4,13L1974.3,657.4z M911.2,632.5l-2.2-0.5c0.9-4.3,2-8.6,3-12.9l2.1,0.5
				C913.1,623.9,912.1,628.3,911.2,632.5z M1969.1,631.5c-1-4.3-2-8.6-3-12.8l2.1-0.5c1.1,4.3,2.1,8.6,3,12.9L1969.1,631.5z
				 M917.5,606.9l-2.1-0.6c1.2-4.3,2.4-8.5,3.6-12.7l2.1,0.6C919.9,598.4,918.6,602.7,917.5,606.9z M1962.8,605.9
				c-1.2-4.2-2.4-8.5-3.7-12.7l2.1-0.6c1.3,4.2,2.5,8.5,3.7,12.7L1962.8,605.9z M925.1,581.6L923,581c1.4-4.2,2.8-8.4,4.3-12.6
				l2.1,0.7C927.9,573.3,926.4,577.5,925.1,581.6z M1955.1,580.6c-1.4-4.2-2.8-8.4-4.3-12.5l2.1-0.7c1.5,4.1,2.9,8.4,4.3,12.5
				L1955.1,580.6z M933.9,556.7l-2.1-0.8c1.6-4.1,3.2-8.3,4.9-12.4l2,0.8C937.1,548.5,935.5,552.6,933.9,556.7z M1946.3,555.8
				c-1.6-4.1-3.2-8.2-4.9-12.3l2-0.8c1.7,4.1,3.3,8.2,4.9,12.3L1946.3,555.8z M944,532.2l-2-0.9c1.8-4,3.6-8.1,5.5-12.1l2,0.9
				C947.6,524.1,945.7,528.2,944,532.2z M1936.2,531.4c-1.8-4-3.6-8-5.5-12l2-0.9c1.9,4,3.7,8,5.5,12L1936.2,531.4z M955.2,508.3
				l-2-1c2-3.9,4-7.9,6.1-11.8l1.9,1C959.2,500.4,957.1,504.3,955.2,508.3z M1925,507.6c-2-3.9-4-7.8-6-11.7l1.9-1
				c2.1,3.9,4.1,7.8,6.1,11.7L1925,507.6z M967.6,484.9l-1.9-1.1c2.2-3.8,4.4-7.7,6.6-11.5l1.9,1.1
				C971.9,477.2,969.7,481.1,967.6,484.9z M1912.7,484.4c-2.1-3.8-4.4-7.6-6.6-11.4l1.9-1.1c2.2,3.8,4.5,7.6,6.6,11.4L1912.7,484.4z
				 M981.1,462.2l-1.9-1.2c2.3-3.7,4.8-7.5,7.2-11.1l1.8,1.2C985.8,454.7,983.4,458.5,981.1,462.2z M1899.2,461.7
				c-2.3-3.7-4.7-7.4-7.2-11.1l1.8-1.2c2.4,3.7,4.9,7.4,7.2,11.1L1899.2,461.7z M995.7,440.2l-1.8-1.3c2.5-3.6,5.1-7.2,7.7-10.8
				l1.8,1.3C1000.8,432.9,998.2,436.6,995.7,440.2z M1884.6,439.8c-2.5-3.6-5.1-7.2-7.7-10.7l1.8-1.3c2.6,3.6,5.2,7.2,7.7,10.7
				L1884.6,439.8z M1011.3,418.9l-1.7-1.3c2.7-3.5,5.5-7,8.2-10.4l1.7,1.4C1016.7,411.9,1014,415.4,1011.3,418.9z M1869,418.6
				c-2.7-3.4-5.4-6.9-8.2-10.3l1.7-1.4c2.8,3.4,5.6,6.9,8.2,10.4L1869,418.6z M1028,398.4l-1.7-1.4c2.9-3.3,5.8-6.7,8.7-10l1.6,1.5
				C1033.7,391.7,1030.8,395.1,1028,398.4z M1852.4,398.1c-2.8-3.3-5.8-6.7-8.7-9.9l1.6-1.5c2.9,3.3,5.9,6.6,8.7,10L1852.4,398.1z
				 M1045.6,378.7l-1.6-1.5c3-3.2,6.1-6.4,9.2-9.5l1.6,1.5C1051.7,372.3,1048.6,375.5,1045.6,378.7z M1834.7,378.5
				c-3-3.2-6.1-6.4-9.2-9.5l1.6-1.6c3.1,3.1,6.2,6.3,9.2,9.5L1834.7,378.5z M1064.1,360l-1.5-1.6c3.1-3,6.4-6.1,9.6-9.1l1.5,1.6
				C1070.5,353.9,1067.3,356.9,1064.1,360z M1816.2,359.7c-3.1-3-6.4-6.1-9.6-9l1.5-1.6c3.3,3,6.5,6,9.7,9.1L1816.2,359.7z
				 M1083.5,342.1l-1.5-1.7c3.3-2.9,6.7-5.8,10.1-8.6l1.4,1.7C1090.2,336.4,1086.8,339.2,1083.5,342.1z M1796.7,341.9
				c-3.3-2.9-6.7-5.8-10-8.6l1.4-1.7c3.4,2.8,6.8,5.7,10.1,8.6L1796.7,341.9z M1103.8,325.2l-1.4-1.7c3.4-2.7,7-5.5,10.5-8.1
				l1.3,1.8C1110.7,319.8,1107.2,322.5,1103.8,325.2z M1776.5,325c-3.4-2.7-6.9-5.4-10.4-8.1l1.3-1.8c3.5,2.6,7,5.4,10.5,8.1
				L1776.5,325z M1124.8,309.4l-1.3-1.8c3.6-2.5,7.2-5.1,10.8-7.6l1.2,1.8C1132,304.3,1128.4,306.8,1124.8,309.4z M1755.4,309.1
				c-3.6-2.5-7.2-5.1-10.8-7.6l1.2-1.8c3.6,2.5,7.3,5,10.9,7.6L1755.4,309.1z M1146.6,294.5l-1.2-1.9c3.7-2.4,7.5-4.8,11.2-7
				l1.2,1.9C1154,289.8,1150.3,292.2,1146.6,294.5z M1733.5,294.3c-3.7-2.4-7.5-4.7-11.2-7l1.2-1.9c3.7,2.3,7.5,4.7,11.2,7.1
				L1733.5,294.3z M1169.1,280.8l-1.1-1.9c3.8-2.2,7.7-4.4,11.5-6.5l1.1,1.9C1176.7,276.4,1172.9,278.6,1169.1,280.8z M1711,280.5
				c-3.8-2.2-7.7-4.4-11.5-6.5l1.1-1.9c3.9,2.1,7.8,4.3,11.6,6.5L1711,280.5z M1192.2,268.1l-1-2c3.9-2,7.9-4,11.8-5.9l1,2
				C1200,264.2,1196,266.1,1192.2,268.1z M1687.8,267.8c-3.9-2-7.9-4-11.8-5.9l1-2c4,1.9,8,3.9,11.9,5.9L1687.8,267.8z
				 M1215.8,256.7l-0.9-2c4-1.8,8-3.6,12.1-5.3l0.9,2C1223.8,253.1,1219.8,254.9,1215.8,256.7z M1663.9,256.3
				c-4-1.8-8.1-3.6-12.1-5.3l0.9-2c4.1,1.7,8.2,3.5,12.2,5.3L1663.9,256.3z M1240,246.3l-0.8-2c4.1-1.6,8.3-3.2,12.4-4.7l0.8,2.1
				C1248.2,243.1,1244.1,244.7,1240,246.3z M1639.6,246c-4.1-1.6-8.2-3.2-12.4-4.7l0.8-2.1c4.1,1.5,8.3,3.1,12.4,4.7L1639.6,246z
				 M1264.8,237.2l-0.7-2.1c4.2-1.4,8.4-2.8,12.6-4.1l0.7,2.1C1273.1,234.4,1268.9,235.8,1264.8,237.2z M1614.7,236.8
				c-4.2-1.4-8.4-2.8-12.6-4.1l0.7-2.1c4.2,1.3,8.5,2.7,12.6,4.1L1614.7,236.8z M1290,229.3l-0.6-2.1c4.2-1.2,8.5-2.4,12.8-3.5
				l0.6,2.1C1298.4,226.9,1294.1,228,1290,229.3z M1589.5,228.9c-4.2-1.2-8.5-2.4-12.7-3.5l0.6-2.1c4.3,1.1,8.6,2.3,12.8,3.5
				L1589.5,228.9z M1315.5,222.6l-0.5-2.1c4.3-1,8.6-2,12.9-2.9l0.5,2.2C1324.1,220.6,1319.7,221.6,1315.5,222.6z M1564,222.3
				c-4.3-1-8.6-2-12.9-2.8l0.4-2.2c4.3,0.9,8.7,1.9,12.9,2.9L1564,222.3z M1341.3,217.2l-0.4-2.2c4.3-0.8,8.7-1.6,13.1-2.2l0.3,2.2
				C1350,215.6,1345.6,216.4,1341.3,217.2z M1538.1,217c-4.3-0.8-8.7-1.5-13-2.2l0.3-2.2c4.4,0.7,8.7,1.4,13.1,2.2L1538.1,217z
				 M1367.4,213l-0.3-2.2c4.3-0.6,8.8-1.1,13.2-1.6l0.2,2.2C1376.1,211.9,1371.7,212.4,1367.4,213z M1512.1,212.8
				c-4.3-0.6-8.7-1.1-13.1-1.6l0.2-2.2c4.4,0.5,8.8,1,13.2,1.6L1512.1,212.8z M1393.6,210.1l-0.2-2.2c4.4-0.4,8.8-0.7,13.2-1
				l0.1,2.2C1402.4,209.4,1397.9,209.7,1393.6,210.1z M1485.8,210c-4.4-0.4-8.8-0.7-13.2-0.9l0.1-2.2c4.4,0.3,8.8,0.6,13.2,0.9
				L1485.8,210z M1419.9,208.5l-0.1-2.2c4.4-0.2,8.8-0.3,13.2-0.3l0,2.2C1428.7,208.2,1424.3,208.4,1419.9,208.5z M1459.5,208.5
				c-4.4-0.2-8.8-0.3-13.2-0.3l0-2.2c4.4,0,8.9,0.1,13.2,0.3L1459.5,208.5z"/>
		</g>
		<g>
			<path class="st0" d="M1433.9,1402.2c-4.4,0-8.8-0.1-13.2-0.3l0.1-2.2c4.4,0.1,8.8,0.2,13.2,0.3L1433.9,1402.2z M1447.1,1402.2
				l0-2.2c4.4,0,8.8-0.1,13.2-0.3l0.1,2.2C1455.9,1402.1,1451.5,1402.1,1447.1,1402.2z M1407.4,1401.4c-4.4-0.2-8.8-0.5-13.2-0.8
				l0.2-2.2c4.4,0.3,8.8,0.6,13.2,0.8L1407.4,1401.4z M1473.5,1401.4l-0.1-2.2c4.4-0.2,8.8-0.5,13.2-0.8l0.2,2.2
				C1482.3,1400.9,1477.9,1401.2,1473.5,1401.4z M1381.1,1399.6c-4.4-0.4-8.8-0.8-13.2-1.3l0.2-2.2c4.3,0.5,8.8,0.9,13.1,1.3
				L1381.1,1399.6z M1499.9,1399.5l-0.2-2.2c4.3-0.4,8.8-0.8,13.1-1.3l0.2,2.2C1508.6,1398.7,1504.2,1399.1,1499.9,1399.5z
				 M1354.8,1396.7c-4.4-0.6-8.8-1.2-13.1-1.8l0.3-2.2c4.3,0.7,8.7,1.3,13,1.8L1354.8,1396.7z M1526.1,1396.6l-0.3-2.2
				c4.3-0.6,8.7-1.2,13-1.8l0.3,2.2C1534.9,1395.4,1530.5,1396,1526.1,1396.6z M1328.7,1392.7c-4.3-0.7-8.7-1.5-13-2.4l0.4-2.2
				c4.3,0.8,8.6,1.6,13,2.4L1328.7,1392.7z M1552.3,1392.6l-0.4-2.2c4.3-0.7,8.7-1.5,13-2.4l0.4,2.2
				C1561,1391.1,1556.6,1391.9,1552.3,1392.6z M1302.7,1387.7c-4.3-0.9-8.6-1.9-12.9-2.9l0.5-2.1c4.3,1,8.6,2,12.9,2.9
				L1302.7,1387.7z M1578.2,1387.6l-0.5-2.2c4.3-0.9,8.6-1.9,12.8-2.9l0.5,2.1C1586.8,1385.7,1582.5,1386.7,1578.2,1387.6z
				 M1277,1381.6c-4.2-1.1-8.5-2.2-12.8-3.4l0.6-2.1c4.2,1.2,8.5,2.3,12.7,3.4L1277,1381.6z M1603.9,1381.5l-0.6-2.1
				c4.2-1.1,8.5-2.2,12.7-3.4l0.6,2.1C1612.5,1379.3,1608.2,1380.4,1603.9,1381.5z M1251.5,1374.5c-4.2-1.3-8.5-2.6-12.7-4l0.7-2.1
				c4.2,1.4,8.4,2.7,12.6,4L1251.5,1374.5z M1629.4,1374.4l-0.6-2.1c4.2-1.3,8.4-2.6,12.6-3.9l0.7,2.1
				C1637.8,1371.8,1633.6,1373.1,1629.4,1374.4z M1226.3,1366.3c-4.1-1.4-8.3-2.9-12.5-4.5l0.8-2.1c4.1,1.5,8.3,3,12.4,4.5
				L1226.3,1366.3z M1654.5,1366.2l-0.7-2.1c4.1-1.4,8.3-2.9,12.4-4.5l0.8,2.1C1662.9,1363.3,1658.7,1364.8,1654.5,1366.2z
				 M1201.4,1357.1c-4.1-1.6-8.2-3.3-12.3-5l0.8-2c4,1.7,8.2,3.4,12.2,5L1201.4,1357.1z M1679.3,1357l-0.8-2.1
				c4-1.6,8.1-3.3,12.2-4.9l0.8,2C1687.5,1353.8,1683.4,1355.4,1679.3,1357z M1176.9,1346.9c-4-1.8-8.1-3.6-12.1-5.5l0.9-2
				c4,1.9,8,3.7,12,5.5L1176.9,1346.9z M1703.6,1346.9l-0.9-2c4-1.8,8-3.6,12-5.4l0.9,2C1711.6,1343.3,1707.6,1345.1,1703.6,1346.9z
				 M1727.5,1335.7l-1-2c3.9-1.9,7.8-3.9,11.7-5.9l1,2C1735.4,1331.8,1731.4,1333.8,1727.5,1335.7z M1152.9,1335.7
				c-3.9-1.9-7.9-3.9-11.8-6l1-2c3.9,2,7.9,4,11.8,5.9L1152.9,1335.7z M1750.9,1323.6l-1.1-1.9c3.8-2.1,7.7-4.2,11.5-6.4l1.1,1.9
				C1758.6,1319.4,1754.7,1321.6,1750.9,1323.6z M1129.4,1323.5c-3.8-2.1-7.7-4.3-11.6-6.4l1.1-1.9c3.8,2.2,7.7,4.3,11.5,6.4
				L1129.4,1323.5z M1773.8,1310.6l-1.1-1.9c3.7-2.2,7.5-4.5,11.2-6.8l1.2,1.9C1781.4,1306,1777.6,1308.4,1773.8,1310.6z
				 M1106.4,1310.4c-3.8-2.2-7.6-4.6-11.3-6.9l1.2-1.9c3.7,2.3,7.5,4.6,11.3,6.9L1106.4,1310.4z M1796.2,1296.6l-1.2-1.8
				c3.6-2.4,7.3-4.8,10.9-7.3l1.2,1.8C1803.6,1291.8,1799.9,1294.2,1796.2,1296.6z M1083.9,1296.4c-3.7-2.4-7.4-4.9-11-7.4l1.2-1.8
				c3.6,2.5,7.3,4.9,11,7.3L1083.9,1296.4z M1818,1281.8l-1.3-1.8c3.5-2.5,7.1-5.1,10.6-7.7l1.3,1.8
				C1825.2,1276.6,1821.6,1279.2,1818,1281.8z M1062.1,1281.4c-3.6-2.5-7.2-5.2-10.7-7.8l1.3-1.8c3.5,2.6,7.1,5.2,10.7,7.8
				L1062.1,1281.4z M1839.2,1266l-1.3-1.7c3.5-2.7,6.9-5.4,10.3-8.2l1.4,1.7C1846.2,1260.6,1842.7,1263.3,1839.2,1266z
				 M1040.8,1265.6c-3.5-2.7-6.9-5.4-10.4-8.2l1.4-1.7c3.4,2.8,6.9,5.5,10.3,8.2L1040.8,1265.6z M1859.8,1249.4l-1.4-1.7
				c3.3-2.8,6.7-5.7,10-8.6l1.5,1.7C1866.5,1243.7,1863.1,1246.6,1859.8,1249.4z M1020.3,1249c-3.3-2.8-6.7-5.7-10-8.6l1.5-1.7
				c3.3,2.9,6.7,5.8,10,8.6L1020.3,1249z M1879.6,1232l-1.5-1.6c3.2-3,6.5-6,9.6-9l1.5,1.6C1886.1,1226,1882.9,1229.1,1879.6,1232z
				 M1000.4,1231.6c-3.2-2.9-6.5-6-9.7-9l1.5-1.6c3.2,3,6.4,6.1,9.6,9L1000.4,1231.6z M1898.8,1213.8l-1.6-1.6
				c3.1-3.1,6.2-6.2,9.3-9.4l1.6,1.5C1905.1,1207.6,1901.9,1210.7,1898.8,1213.8z M981.2,1213.3c-3.1-3.1-6.2-6.3-9.3-9.4l1.6-1.5
				c3,3.1,6.2,6.3,9.3,9.4L981.2,1213.3z M1917.2,1194.9l-1.6-1.5c3-3.2,6-6.5,8.9-9.7l1.6,1.5
				C1923.2,1188.4,1920.2,1191.7,1917.2,1194.9z M962.9,1194.4c-3-3.2-6-6.5-8.9-9.8l1.6-1.5c2.9,3.2,5.9,6.5,8.9,9.7L962.9,1194.4z
				 M1934.9,1175.2l-1.7-1.4c2.8-3.3,5.7-6.7,8.5-10.1l1.7,1.4C1940.6,1168.5,1937.7,1171.9,1934.9,1175.2z M945.2,1174.7
				c-2.8-3.3-5.7-6.7-8.5-10.1l1.7-1.4c2.8,3.4,5.6,6.8,8.5,10.1L945.2,1174.7z M1951.7,1154.8l-1.7-1.4c2.7-3.4,5.4-6.9,8.1-10.4
				l1.8,1.3C1957.2,1147.8,1954.4,1151.3,1951.7,1154.8z M928.4,1154.3c-2.7-3.4-5.4-6.9-8.1-10.4l1.8-1.3c2.7,3.5,5.4,7,8.1,10.4
				L928.4,1154.3z M1967.7,1133.7l-1.8-1.3c2.6-3.5,5.2-7.2,7.7-10.7l1.8,1.3C1972.9,1126.5,1970.3,1130.2,1967.7,1133.7z
				 M912.5,1133.3c-2.6-3.5-5.1-7.2-7.7-10.8l1.8-1.3c2.5,3.6,5.1,7.2,7.6,10.7L912.5,1133.3z M1982.9,1112l-1.8-1.2
				c2.4-3.6,4.9-7.4,7.2-11l1.9,1.2C1987.8,1104.6,1985.3,1108.4,1982.9,1112z M897.4,1111.6c-2.4-3.6-4.8-7.3-7.2-11l1.9-1.2
				c2.4,3.7,4.8,7.4,7.2,11L897.4,1111.6z M1997.1,1089.7l-1.9-1.1c2.3-3.7,4.6-7.5,6.8-11.3l1.9,1.1
				C2001.7,1082.1,1999.4,1086,1997.1,1089.7z M883.2,1089.4c-2.3-3.7-4.6-7.6-6.8-11.3l1.9-1.1c2.2,3.8,4.5,7.6,6.7,11.3
				L883.2,1089.4z M2010.5,1066.9l-1.9-1.1c2.1-3.8,4.3-7.7,6.3-11.6l1.9,1C2014.8,1059.1,2012.6,1063,2010.5,1066.9z M869.9,1066.6
				c-2.1-3.8-4.2-7.7-6.3-11.6l1.9-1c2.1,3.9,4.2,7.8,6.3,11.5L869.9,1066.6z M2022.9,1043.5l-2-1c2-3.9,3.9-7.9,5.8-11.8l2,1
				C2026.8,1035.6,2024.9,1039.6,2022.9,1043.5z M857.6,1043.3c-2-3.9-3.9-7.9-5.8-11.8l2-1c1.9,3.9,3.8,7.9,5.8,11.8L857.6,1043.3z
				 M2034.4,1019.6l-2-0.9c1.8-4,3.6-8,5.3-12.1l2,0.9C2038,1011.5,2036.2,1015.6,2034.4,1019.6z M846.2,1019.5c-1.8-4-3.6-8-5.3-12
				l2-0.9c1.7,4,3.5,8,5.3,12L846.2,1019.5z M835.8,995.3c-1.7-4.1-3.3-8.2-4.8-12.3l2.1-0.8c1.6,4.1,3.2,8.2,4.8,12.3L835.8,995.3z
				 M2044.8,995.2l-2-0.8c1.6-4,3.3-8.2,4.8-12.3l2.1,0.8C2048.1,987,2046.5,991.1,2044.8,995.2z M826.3,970.6
				c-1.5-4.1-2.9-8.3-4.3-12.5l2.1-0.7c1.4,4.1,2.9,8.3,4.3,12.4L826.3,970.6z M2054.3,970.4l-2.1-0.7c1.5-4.1,2.9-8.3,4.3-12.5
				l2.1,0.7C2057.2,962.1,2055.8,966.3,2054.3,970.4z M817.9,945.6c-1.3-4.2-2.6-8.4-3.8-12.7l2.1-0.6c1.2,4.2,2.5,8.4,3.8,12.6
				L817.9,945.6z M2062.7,945.3l-2.1-0.7c1.3-4.1,2.6-8.4,3.8-12.6l2.1,0.6C2065.3,936.9,2064.1,941.1,2062.7,945.3z M810.5,920.2
				c-1.1-4.2-2.3-8.5-3.3-12.8l2.1-0.5c1.1,4.2,2.2,8.5,3.3,12.8L810.5,920.2z M2070.1,919.9l-2.1-0.6c1.1-4.2,2.2-8.5,3.3-12.8
				l2.1,0.5C2072.4,911.3,2071.3,915.7,2070.1,919.9z M804.1,894.5c-1-4.3-1.9-8.6-2.8-12.9l2.2-0.4c0.9,4.3,1.8,8.6,2.8,12.9
				L804.1,894.5z M2076.5,894.2l-2.2-0.5c1-4.2,1.9-8.6,2.8-12.9l2.2,0.4C2078.4,885.6,2077.4,890,2076.5,894.2z M798.8,868.6
				c-0.8-4.3-1.6-8.7-2.3-13l2.2-0.4c0.7,4.3,1.5,8.7,2.2,13L798.8,868.6z M2081.8,868.3l-2.2-0.4c0.8-4.3,1.5-8.7,2.2-13l2.2,0.4
				C2083.3,859.6,2082.6,864,2081.8,868.3z M794.6,842.5c-0.6-4.3-1.2-8.8-1.7-13.1l2.2-0.3c0.5,4.3,1.1,8.7,1.7,13.1L794.6,842.5z
				 M2086,842.2l-2.2-0.3c0.6-4.3,1.2-8.7,1.7-13.1l2.2,0.3C2087.2,833.5,2086.6,837.9,2086,842.2z M791.4,816.3
				c-0.4-4.4-0.8-8.8-1.2-13.2l2.2-0.2c0.4,4.4,0.8,8.8,1.2,13.1L791.4,816.3z M2089.2,816l-2.2-0.2c0.4-4.4,0.8-8.8,1.2-13.1
				l2.2,0.2C2090,807.2,2089.6,811.6,2089.2,816z M789.3,790c-0.3-4.4-0.5-8.8-0.7-13.2l2.2-0.1c0.2,4.4,0.4,8.8,0.7,13.2L789.3,790
				z M2091.3,789.6l-2.2-0.1c0.3-4.4,0.5-8.8,0.7-13.2l2.2,0.1C2091.8,780.8,2091.6,785.3,2091.3,789.6z M788.2,763.6
				c-0.1-4.4-0.1-8.8-0.1-13.2h2.2c0,4.4,0,8.8,0.1,13.2L788.2,763.6z M2092.4,763.2l-2.2,0c0.1-4.4,0.1-8.8,0.1-13.2v-0.7h2.2v0.7
				C2092.5,754.4,2092.4,758.8,2092.4,763.2z M790.4,737.2l-2.2,0c0.1-4.4,0.2-8.8,0.4-13.2l2.2,0.1
				C790.6,728.4,790.5,732.8,790.4,737.2z M2090.1,736.2c-0.1-4.4-0.2-8.8-0.4-13.1l2.2-0.1c0.2,4.4,0.3,8.8,0.4,13.2L2090.1,736.2z
				 M791.4,710.9l-2.2-0.1c0.3-4.4,0.6-8.8,0.9-13.2l2.2,0.2C792,702.1,791.7,706.5,791.4,710.9z M2089.1,709.9
				c-0.3-4.4-0.6-8.8-0.9-13.1l2.2-0.2c0.4,4.4,0.7,8.8,0.9,13.2L2089.1,709.9z M793.5,684.6l-2.2-0.2c0.4-4.4,0.9-8.8,1.4-13.1
				l2.2,0.3C794.4,675.8,794,680.2,793.5,684.6z M2086.9,683.6c-0.4-4.3-0.9-8.7-1.5-13.1l2.2-0.3c0.5,4.4,1,8.8,1.5,13.1
				L2086.9,683.6z M796.7,658.4l-2.2-0.3c0.6-4.3,1.3-8.7,2-13.1l2.2,0.4C797.9,649.7,797.3,654.1,796.7,658.4z M2083.7,657.5
				c-0.6-4.3-1.3-8.7-2-13l2.2-0.4c0.7,4.3,1.4,8.7,2,13.1L2083.7,657.5z M800.9,632.4l-2.2-0.4c0.8-4.3,1.6-8.7,2.5-13l2.2,0.4
				C802.5,623.8,801.7,628.1,800.9,632.4z M2079.5,631.5c-0.8-4.3-1.6-8.6-2.5-12.9l2.2-0.4c0.9,4.3,1.7,8.7,2.5,13L2079.5,631.5z
				 M806.1,606.6l-2.2-0.5c1-4.3,2-8.6,3-12.9l2.1,0.5C808.1,598,807.1,602.4,806.1,606.6z M2074.2,605.6c-1-4.3-2-8.6-3-12.8
				l2.1-0.5c1.1,4.3,2.1,8.6,3.1,12.9L2074.2,605.6z M812.5,581l-2.1-0.6c1.1-4.2,2.3-8.5,3.6-12.7l2.1,0.6
				C814.8,572.5,813.6,576.8,812.5,581z M2067.8,580.1c-1.1-4.2-2.3-8.5-3.6-12.7l2.1-0.6c1.2,4.2,2.4,8.5,3.6,12.7L2067.8,580.1z
				 M819.8,555.7l-2.1-0.7c1.3-4.2,2.7-8.5,4.1-12.6l2.1,0.7C822.5,547.3,821.1,551.5,819.8,555.7z M2060.5,554.8
				c-1.3-4.2-2.7-8.4-4.1-12.5l2.1-0.7c1.4,4.1,2.8,8.4,4.1,12.6L2060.5,554.8z M828.2,530.7l-2.1-0.7c1.5-4.2,3-8.3,4.6-12.4
				l2.1,0.8C831.2,522.3,829.7,526.5,828.2,530.7z M2052,529.8c-1.5-4.1-3-8.3-4.6-12.3l2.1-0.8c1.6,4.1,3.1,8.3,4.6,12.4
				L2052,529.8z M837.6,506l-2-0.8c1.7-4.1,3.4-8.2,5.1-12.2l2,0.9C841,497.8,839.3,501.9,837.6,506z M2042.6,505.2
				c-1.6-4-3.3-8.1-5.1-12.1l2-0.9c1.7,4,3.4,8.1,5.1,12.1L2042.6,505.2z M848.1,481.7l-2-0.9c1.8-4,3.7-8,5.6-12l2,1
				C851.8,473.7,849.9,477.7,848.1,481.7z M2032.2,481.1c-1.8-4-3.7-8-5.6-11.9l2-1c1.9,4,3.8,8,5.6,11.9L2032.2,481.1z
				 M859.5,457.9l-2-1c2-3.9,4-7.9,6.1-11.8l1.9,1C863.5,450,861.4,454,859.5,457.9z M2020.9,457.4c-2-3.9-4-7.8-6-11.7l1.9-1
				c2.1,3.9,4.1,7.8,6.1,11.7L2020.9,457.4z M871.8,434.5l-1.9-1.1c2.1-3.9,4.4-7.7,6.6-11.5l1.9,1.1
				C876.2,426.8,874,430.7,871.8,434.5z M2008.6,434.2c-2.1-3.8-4.3-7.6-6.5-11.4l1.9-1.1c2.2,3.8,4.4,7.6,6.5,11.5L2008.6,434.2z
				 M885.1,411.7l-1.9-1.1c2.3-3.8,4.7-7.5,7-11.2l1.9,1.2C889.8,404.2,887.4,408,885.1,411.7z M1995.3,411.5
				c-2.3-3.7-4.6-7.5-7-11.1l1.9-1.2c2.3,3.7,4.7,7.4,7,11.2L1995.3,411.5z M899.3,389.5l-1.8-1.2c2.4-3.6,4.9-7.3,7.5-10.9l1.8,1.3
				C904.2,382.2,901.7,385.9,899.3,389.5z M1981.1,389.4c-2.4-3.6-4.9-7.3-7.4-10.9l1.8-1.3c2.5,3.6,5,7.2,7.4,10.9L1981.1,389.4z
				 M914.4,367.9l-1.8-1.3c2.6-3.5,5.2-7.1,7.9-10.6l1.8,1.3C919.6,360.8,917,364.4,914.4,367.9z M1966.1,367.8
				c-2.6-3.5-5.2-7.1-7.9-10.6l1.8-1.3c2.6,3.5,5.3,7,7.9,10.6L1966.1,367.8z M930.4,346.9l-1.7-1.4c2.7-3.4,5.5-6.9,8.3-10.3
				l1.7,1.4C935.8,340,933.1,343.5,930.4,346.9z M1950.2,346.8c-2.7-3.4-5.5-6.9-8.3-10.2l1.7-1.4c2.8,3.4,5.6,6.8,8.3,10.3
				L1950.2,346.8z M947.1,326.5l-1.7-1.4c2.9-3.3,5.8-6.7,8.7-9.9l1.6,1.5C952.9,319.9,950,323.2,947.1,326.5z M1933.4,326.5
				c-2.9-3.3-5.8-6.7-8.7-9.9l1.6-1.5c2.9,3.3,5.8,6.6,8.7,9.9L1933.4,326.5z M1915.9,306.9c-3-3.2-6-6.4-9.1-9.5l1.6-1.5
				c3.1,3.1,6.1,6.4,9.1,9.6L1915.9,306.9z M964.7,306.9l-1.6-1.5c3-3.2,6.1-6.4,9.1-9.6l1.6,1.5
				C970.7,300.5,967.7,303.7,964.7,306.9z M1897.5,288c-3.1-3.1-6.3-6.2-9.5-9.2l1.5-1.6c3.2,3,6.3,6.1,9.5,9.2L1897.5,288z
				 M983.1,288l-1.6-1.6c3.1-3.1,6.3-6.2,9.5-9.2l1.5,1.6C989.3,281.8,986.2,284.9,983.1,288z M1878.4,269.9
				c-3.2-2.9-6.5-5.9-9.8-8.8l1.5-1.7c3.3,2.9,6.6,5.9,9.9,8.8L1878.4,269.9z M1002.1,269.9l-1.5-1.6c3.2-3,6.6-5.9,9.8-8.8l1.5,1.7
				C1008.7,264,1005.4,266.9,1002.1,269.9z M1021.9,252.5l-1.4-1.7c3.4-2.8,6.8-5.7,10.2-8.4l1.4,1.7
				C1028.7,246.9,1025.3,249.7,1021.9,252.5z M1858.6,252.5c-3.3-2.8-6.8-5.6-10.2-8.4l1.4-1.7c3.4,2.8,6.9,5.6,10.2,8.4
				L1858.6,252.5z M1042.4,236l-1.3-1.7c3.5-2.7,7-5.4,10.5-8l1.3,1.8C1049.4,230.6,1045.9,233.3,1042.4,236z M1838.1,235.9
				c-3.5-2.7-7-5.4-10.5-8l1.3-1.8c3.5,2.6,7.1,5.3,10.5,8L1838.1,235.9z M1063.5,220.3l-1.3-1.8c3.6-2.6,7.2-5.1,10.8-7.5l1.2,1.8
				C1070.7,215.2,1067.1,217.7,1063.5,220.3z M1816.9,220.2c-3.5-2.5-7.2-5.1-10.8-7.5l1.2-1.8c3.6,2.5,7.3,5,10.9,7.6L1816.9,220.2
				z M1085.3,205.4l-1.2-1.8c3.7-2.4,7.4-4.8,11.1-7.1l1.2,1.9C1092.6,200.7,1088.9,203.1,1085.3,205.4z M1795.1,205.3
				c-3.7-2.4-7.4-4.8-11.1-7.1l1.2-1.9c3.7,2.3,7.5,4.7,11.2,7.1L1795.1,205.3z M1107.6,191.5l-1.1-1.9c3.8-2.3,7.6-4.5,11.4-6.6
				l1.1,1.9C1115.1,187,1111.3,189.3,1107.6,191.5z M1772.8,191.4c-3.8-2.3-7.6-4.5-11.4-6.6l1.1-1.9c3.8,2.2,7.7,4.4,11.4,6.7
				L1772.8,191.4z M1130.4,178.5l-1.1-1.9c3.8-2.1,7.8-4.2,11.6-6.2l1,2C1138.1,174.3,1134.2,176.4,1130.4,178.5z M1749.8,178.3
				c-3.9-2.1-7.8-4.2-11.7-6.2l1-2c3.9,2,7.8,4.1,11.7,6.2L1749.8,178.3z M1153.7,166.4l-1-2c3.9-1.9,7.9-3.8,11.9-5.7l0.9,2
				C1161.6,162.6,1157.6,164.5,1153.7,166.4z M1726.4,166.2c-3.9-1.9-7.9-3.8-11.9-5.7l0.9-2c4,1.9,8,3.8,12,5.7L1726.4,166.2z
				 M1177.5,155.3l-0.9-2c4-1.8,8.1-3.5,12.1-5.2l0.8,2C1185.6,151.8,1181.5,153.6,1177.5,155.3z M1702.4,155
				c-4-1.8-8.1-3.5-12.1-5.2l0.8-2c4.1,1.7,8.2,3.5,12.2,5.2L1702.4,155z M1201.7,145.2l-0.8-2.1c4.1-1.6,8.2-3.2,12.3-4.7l0.8,2.1
				C1209.9,142,1205.8,143.6,1201.7,145.2z M1678,144.9c-4.1-1.6-8.3-3.2-12.3-4.7l0.8-2.1c4.1,1.5,8.3,3.1,12.4,4.7L1678,144.9z
				 M1226.4,136l-0.7-2.1c4.2-1.5,8.4-2.9,12.5-4.2l0.7,2.1C1234.8,133.2,1230.6,134.6,1226.4,136z M1653.2,135.7
				c-4.2-1.4-8.4-2.9-12.5-4.2l0.7-2.1c4.2,1.4,8.4,2.8,12.6,4.2L1653.2,135.7z M1251.5,127.9l-0.6-2.1c4.2-1.3,8.5-2.5,12.7-3.7
				l0.6,2.1C1259.9,125.3,1255.7,126.6,1251.5,127.9z M1628.1,127.6c-4.2-1.3-8.4-2.5-12.7-3.7l0.6-2.1c4.2,1.2,8.5,2.4,12.7,3.7
				L1628.1,127.6z M1276.8,120.7l-0.6-2.1c4.3-1.1,8.6-2.2,12.8-3.2l0.5,2.1C1285.4,118.6,1281.1,119.6,1276.8,120.7z M1602.7,120.5
				c-4.2-1.1-8.6-2.2-12.8-3.2l0.5-2.1c4.3,1,8.6,2.1,12.8,3.2L1602.7,120.5z M1302.5,114.6l-0.5-2.2c4.3-0.9,8.6-1.8,12.9-2.7
				l0.4,2.2C1311.1,112.8,1306.7,113.7,1302.5,114.6z M1577.1,114.4c-4.3-0.9-8.6-1.8-12.9-2.6l0.4-2.2c4.3,0.8,8.7,1.7,13,2.6
				L1577.1,114.4z M1328.3,109.6l-0.4-2.2c4.3-0.7,8.7-1.5,13-2.1l0.3,2.2C1337,108.2,1332.6,108.9,1328.3,109.6z M1551.2,109.4
				c-4.3-0.7-8.7-1.4-13-2.1l0.3-2.2c4.3,0.7,8.7,1.4,13.1,2.1L1551.2,109.4z M1354.4,105.6l-0.3-2.2c4.3-0.6,8.8-1.1,13.1-1.6
				l0.2,2.2C1363.1,104.5,1358.7,105.1,1354.4,105.6z M1525.1,105.5c-4.3-0.6-8.7-1.1-13.1-1.6l0.2-2.2c4.4,0.5,8.8,1,13.1,1.6
				L1525.1,105.5z M1380.6,102.7l-0.2-2.2c4.4-0.4,8.8-0.8,13.2-1.1l0.2,2.2C1389.3,102,1384.9,102.3,1380.6,102.7z M1499,102.6
				c-4.4-0.4-8.8-0.7-13.1-1l0.2-2.2c4.4,0.3,8.8,0.7,13.2,1L1499,102.6z M1406.8,100.9l-0.1-2.2c4.4-0.2,8.8-0.4,13.2-0.5l0.1,2.2
				C1415.6,100.5,1411.2,100.6,1406.8,100.9z M1472.7,100.8c-4.4-0.2-8.8-0.4-13.2-0.5l0.1-2.2c4.4,0.1,8.8,0.3,13.2,0.5
				L1472.7,100.8z M1433.2,100.1l0-2.2c4.4,0,8.8-0.1,13.2,0l0,2.2C1441.9,100,1437.5,100,1433.2,100.1z"/>
		</g>
		<g>
			<path class="st0" d="M1440.3,1352.1c-81.3,0-160.1-15.9-234.4-47.3c-71.7-30.3-136.1-73.7-191.4-129
				c-55.3-55.3-98.7-119.7-129-191.4c-31.4-74.2-47.3-153.1-47.3-234.4s15.9-160.1,47.3-234.4c30.3-71.7,73.7-136.1,129-191.4
				c55.3-55.3,119.7-98.7,191.4-129c74.2-31.4,153.1-47.3,234.4-47.3s160.1,15.9,234.4,47.3c71.7,30.3,136.1,73.7,191.4,129
				c55.3,55.3,98.7,119.7,129,191.4c31.4,74.2,47.3,153.1,47.3,234.4s-15.9,160.1-47.3,234.4c-30.3,71.7-73.7,136.1-129,191.4
				c-55.3,55.3-119.7,98.7-191.4,129C1600.4,1336.2,1521.6,1352.1,1440.3,1352.1z M1440.3,149c-331.4,0-601,269.6-601,601
				c0,331.4,269.6,601,601,601c331.4,0,601-269.6,601-601C2041.3,418.6,1771.7,149,1440.3,149z"/>
		</g>
	</g>
	<path class="st0" d="M347.9,749.2c0,16.6,13.4,30,30,30h669.7c16.6,0,30-13.4,30-30l0,0c0-16.6-13.4-30-30-30H377.9
		C361.3,719.1,347.9,732.6,347.9,749.2L347.9,749.2z"/>
	<path class="st0" d="M1705.3,863.5c0,16.6,13.4,30,30,30h669.7c16.6,0,30-13.4,30-30l0,0c0-16.6-13.4-30-30-30h-669.7
		C1718.8,833.4,1705.3,846.9,1705.3,863.5L1705.3,863.5z"/>
	<path class="st0" d="M755.1,664.7c0,16.6,13.4,30,30,30h669.7c16.6,0,30-13.4,30-30l0,0c0-16.6-13.4-30-30-30H785.2
		C768.6,634.6,755.1,648.1,755.1,664.7L755.1,664.7z"/>
	<path class="st0" d="M515.6,664.7c0,16.6,13.4,30,30,30h81.3c16.6,0,30-13.4,30-30l0,0c0-16.6-13.4-30-30-30h-81.3
		C529.1,634.6,515.6,648.1,515.6,664.7L515.6,664.7z"/>
	<path class="st0" d="M2276.4,943.9c0,16.6-13.4,30-30,30h-669.7c-16.6,0-30-13.4-30-30l0,0c0-16.6,13.4-30,30-30h669.7
		C2262.9,913.9,2276.4,927.3,2276.4,943.9L2276.4,943.9z"/>
	<path class="st0" d="M2511.1,948.7c0,16.6-13.4,30-30,30h-81.3c-16.6,0-30-13.4-30-30l0,0c0-16.6,13.4-30,30-30h81.3
		C2497.6,918.7,2511.1,932.1,2511.1,948.7L2511.1,948.7z"/>
	<circle class="st0" cx="595.8" cy="769.8" r="50.6"/>
	<circle class="st0" cx="621.1" cy="630.3" r="68.1"/>
	<path class="st0" d="M2107.4,415.7c0,16.6-13.4,30-30,30h-81.3c-16.6,0-30-13.4-30-30l0,0c0-16.6,13.4-30,30-30h81.3
		C2093.9,385.6,2107.4,399.1,2107.4,415.7L2107.4,415.7z"/>
	<circle class="st0" cx="2001.9" cy="381.3" r="68.1"/>
	<circle class="st0" cx="2323.9" cy="842.9" r="50.6"/>
	<circle class="st0" cx="2214.6" cy="809.3" r="84.1"/>
	<circle class="st0" cx="2031.2" cy="756.8" r="129.7"/>
	<circle class="st0" cx="1986.7" cy="1014.9" r="84.1"/>
	<circle class="st0" cx="699" cy="820.4" r="84.1"/>
	<circle class="st0" cx="860.3" cy="870.9" r="116.6"/>
	<circle class="st0" cx="944.6" cy="562.2" r="116.6"/>
	<circle class="st0" cx="833.9" cy="624.3" r="54.5"/>
	<path class="st0" d="M1823.8,531.8c0,20-16.3,36.3-36.3,36.3H978c-20.1,0-36.3-16.3-36.3-36.3l0,0c0-20,16.3-36.3,36.3-36.3h809.5
		C1807.6,495.5,1823.8,511.7,1823.8,531.8L1823.8,531.8z"/>
	<circle class="st0" cx="1594.8" cy="407.9" r="140.9"/>
	<circle class="st0" cx="1728.6" cy="483" r="65.9"/>
	<polygon class="st0" points="793.2,744.4 722.3,769.8 816.6,820.4 	"/>
</g>
<g>
	<g>
		<rect x="591.9" y="1216.7" class="st1" width="133.7" height="133.6"/>
		<rect x="754.9" y="1017.7" class="st1" width="133.7" height="332.6"/>
		<rect x="917.8" y="1066.5" class="st1" width="133.7" height="283.8"/>
		<rect x="1080.7" y="894.7" class="st1" width="133.7" height="455.6"/>
		<rect x="1243.6" y="831.5" class="st1" width="133.7" height="518.8"/>
		<rect x="1406.6" y="718.5" class="st1" width="133.7" height="631.8"/>
		<rect x="1569.5" y="782.7" class="st1" width="133.7" height="567.6"/>
		<rect x="1732.4" y="685.1" class="st1" width="133.7" height="665.2"/>
		<rect x="1895.4" y="608" class="st1" width="133.7" height="742.2"/>
		<rect x="2058.3" y="495" class="st1" width="133.7" height="855.2"/>
	</g>
	<g>
		<path class="st2" d="M656,1191.4c-0.5,0-0.9-0.2-1.3-0.5c-0.9-0.7-1.1-2.1-0.3-3l162.9-204.8c0.5-0.7,1.5-1,2.3-0.7l164.4,49.6
			l162-168.4c0.2-0.2,0.5-0.4,0.8-0.5l162.7-65l162.7-107.5c0.6-0.4,1.3-0.5,1.9-0.2l162,57.3l165.5-97.9c0.1,0,0.1-0.1,0.2-0.1
			l159.3-73.7l170.6-115.2c1-0.7,2.3-0.4,3,0.6c0.7,1,0.4,2.3-0.6,3l-170.7,115.2c-0.1,0.1-0.2,0.1-0.3,0.2l-159.4,73.8l-166.3,98.3
			c-0.5,0.3-1.2,0.4-1.8,0.2l-161.9-57.3l-162,107.1c-0.1,0.1-0.3,0.1-0.4,0.2l-162.5,64.9l-162.6,169c-0.6,0.6-1.4,0.8-2.2,0.6
			l-164.3-49.5l-162,203.7C657.3,1191.1,656.7,1191.4,656,1191.4z"/>
	</g>
	<circle class="st2" cx="658.8" cy="1189.3" r="12.8"/>
	<circle class="st2" cx="821.7" cy="981.5" r="12.8"/>
	<circle class="st2" cx="984.6" cy="1034.4" r="12.8"/>
	<circle class="st2" cx="1147.6" cy="865.1" r="12.8"/>
	<circle class="st2" cx="1310.5" cy="795.5" r="12.8"/>
	<circle class="st2" cx="1473.4" cy="692.4" r="12.8"/>
	<circle class="st2" cx="1636.4" cy="750" r="12.8"/>
	<circle class="st2" cx="1799.3" cy="651.6" r="12.8"/>
	<circle class="st2" cx="1962.2" cy="577.8" r="12.8"/>
	<circle class="st2" cx="2132.9" cy="462.5" r="12.8"/>
</g>
<g>
	<path class="st3" d="M1025.9,780.2l-31.2,26.1c-1.1,0.9-2.5,1.5-4.2,1.6c-1.7,0.1-3.1-0.3-4.2-1.3l-25.7-22.7
		c-6.5,2.4-12.3,4.2-17.4,5.2c-1.9,7.2-4.2,17.6-6.8,31.2c-0.3,1.9-1.1,3.3-2.3,4.3c-1.2,1-2.6,1.5-4.3,1.4
		c-5.6,0.4-14.5,0-26.8-1.2c-12.3-1.2-19.3-2.8-21-4.9c-0.9-1.1-1.5-2.7-1.8-4.7l-1-32.1c-5.6-2.3-10.9-5.1-16-8.3
		c-14,9.1-23.8,15.1-29.6,17.8c-3.2,1.5-5.9,0.9-8.2-1.8l-26.1-31.2c-1.1-1.3-1.7-2.8-1.7-4.4c0-1.6,0.5-3,1.7-4.1l22.6-25.5
		c-2.3-5.8-4.1-11.5-5.4-17l-31.6-7.3c-1.6-0.2-3-1.1-4.2-2.5c-1.1-1.3-1.6-2.9-1.4-4.8c0.8-20.7,2.2-35,4.2-42.9
		c0.4-1.4,1.2-2.7,2.4-3.7c1.1-0.9,2.5-1.5,4.2-1.6c3.1-0.2,8.3-0.4,15.3-0.6c7.1-0.2,12.5-0.4,16.3-0.7c2.6-6.4,5.6-12.2,9.1-17.4
		l-17.7-28.9c-0.8-1.4-1.1-2.8-0.7-4.4c0.4-1.6,1.1-2.9,2.4-3.9l31.2-26.1c1.1-0.9,2.5-1.5,4.2-1.6c1.7-0.1,3,0.3,4.1,1.1l25.8,22.9
		c5.4-2.3,11.2-4.1,17.5-5.3c2.2-8.2,4.5-18.6,6.8-31.2c0.3-1.9,1.1-3.3,2.2-4.2c0.9-0.8,2.4-1.3,4.3-1.4c5.4-0.4,14.3,0,26.7,1.2
		c12.4,1.2,19.4,2.8,21.1,4.9c1,1.2,1.6,2.8,1.6,4.8l1.2,32c5.6,2.3,10.9,5.1,16,8.3c14-9.1,23.8-15.1,29.6-17.8
		c3.2-1.5,5.9-0.9,8.2,1.8l26.1,31.2c1.1,1.3,1.7,2.8,1.7,4.4c0,1.7-0.5,3-1.7,4.1l-22.6,25.5c2.3,5.8,4.1,11.5,5.4,17l31.7,7.4
		c1.5,0.1,2.9,0.9,4.1,2.3c1,1.2,1.5,2.8,1.5,4.7c-1.1,21.4-2.6,35.8-4.5,43.2c-0.2,1.3-1,2.5-2.3,3.6c-1.1,0.9-2.5,1.5-4.2,1.6
		c-3.1,0.2-8.3,0.5-15.3,0.6c-7.1,0.2-12.5,0.4-16.2,0.7c-2.7,6.3-5.6,12.1-9,17.3l17.6,29c0.8,1.4,1.1,2.8,0.7,4.4
		C1027.9,777.9,1027.1,779.2,1025.9,780.2z M916.2,731.8c12.9,1.2,24.3-2.4,34.3-10.7c9.9-8.3,15.5-18.9,16.6-31.8
		c1.2-12.9-2.4-24.3-10.7-34.2c-8.3-9.9-18.9-15.5-31.8-16.6c-12.9-1.2-24.3,2.4-34.3,10.7c-9.9,8.3-15.5,18.9-16.6,31.8
		c-1.2,12.9,2.4,24.3,10.7,34.3C892.7,725.1,903.3,730.6,916.2,731.8z"/>
</g>
<g>
	<path class="st4" d="M1087.9,544.1l-10.8,9c-0.4,0.3-0.9,0.5-1.4,0.5c-0.6,0-1.1-0.1-1.4-0.4l-8.9-7.8c-2.3,0.8-4.3,1.4-6,1.8
		c-0.7,2.5-1.5,6.1-2.4,10.8c-0.1,0.6-0.4,1.1-0.8,1.5c-0.4,0.4-0.9,0.5-1.5,0.5c-1.9,0.1-5,0-9.2-0.4c-4.2-0.4-6.7-1-7.3-1.7
		c-0.3-0.4-0.5-0.9-0.6-1.6l-0.4-11.1c-1.9-0.8-3.8-1.8-5.5-2.9c-4.8,3.2-8.2,5.2-10.2,6.1c-1.1,0.5-2,0.3-2.8-0.6l-9-10.8
		c-0.4-0.5-0.6-1-0.6-1.5c0-0.6,0.2-1,0.6-1.4l7.8-8.8c-0.8-2-1.4-4-1.8-5.9l-10.9-2.5c-0.6-0.1-1-0.4-1.4-0.8
		c-0.4-0.5-0.5-1-0.5-1.7c0.3-7.2,0.8-12.1,1.5-14.8c0.1-0.5,0.4-0.9,0.8-1.3c0.4-0.3,0.9-0.5,1.4-0.5c1.1-0.1,2.8-0.2,5.3-0.2
		c2.4-0.1,4.3-0.1,5.6-0.2c0.9-2.2,1.9-4.2,3.1-6l-6.1-10c-0.3-0.5-0.4-1-0.2-1.5c0.1-0.5,0.4-1,0.8-1.3l10.8-9
		c0.4-0.3,0.9-0.5,1.4-0.5c0.6,0,1,0.1,1.4,0.4l8.9,7.9c1.9-0.8,3.9-1.4,6-1.8c0.8-2.8,1.5-6.4,2.4-10.8c0.1-0.6,0.4-1.1,0.8-1.5
		c0.3-0.3,0.8-0.4,1.5-0.5c1.9-0.1,4.9,0,9.2,0.4c4.3,0.4,6.7,1,7.3,1.7c0.4,0.4,0.5,1,0.6,1.7l0.4,11c1.9,0.8,3.8,1.8,5.5,2.9
		c4.8-3.2,8.2-5.2,10.2-6.1c1.1-0.5,2-0.3,2.8,0.6l9,10.8c0.4,0.5,0.6,1,0.6,1.5c0,0.6-0.2,1-0.6,1.4l-7.8,8.8c0.8,2,1.4,4,1.9,5.9
		l10.9,2.6c0.5,0,1,0.3,1.4,0.8c0.4,0.4,0.5,1,0.5,1.6c-0.4,7.4-0.9,12.3-1.6,14.9c-0.1,0.4-0.3,0.9-0.8,1.2
		c-0.4,0.3-0.9,0.5-1.4,0.5c-1.1,0.1-2.8,0.2-5.3,0.2c-2.4,0.1-4.3,0.1-5.6,0.2c-0.9,2.2-1.9,4.2-3.1,6l6.1,10
		c0.3,0.5,0.4,1,0.2,1.5C1088.5,543.3,1088.3,543.7,1087.9,544.1z M1050,527.4c4.4,0.4,8.4-0.8,11.8-3.7c3.4-2.9,5.3-6.5,5.7-11
		c0.4-4.4-0.8-8.4-3.7-11.8c-2.9-3.4-6.5-5.3-11-5.7c-4.5-0.4-8.4,0.8-11.8,3.7c-3.4,2.9-5.3,6.5-5.7,11c-0.4,4.5,0.8,8.4,3.7,11.8
		C1041.9,525,1045.6,527,1050,527.4z"/>
</g>
<path class="st5" d="M2423.7,1347.1c0,14.8-12,26.7-26.7,26.7H360.6c-14.8,0-26.7-12-26.7-26.7l0,0c0-14.8,12-26.7,26.7-26.7H2397
	C2411.7,1320.4,2423.7,1332.3,2423.7,1347.1L2423.7,1347.1z"/>
<g>
	<polygon class="st6" points="1938.2,412.8 1883.5,424.8 1966.7,461 	"/>
	
		<rect x="1886.2" y="423.1" transform="matrix(0.3983 -0.9172 0.9172 0.3983 722.2459 2036.8416)" class="st7" width="55" height="89.6"/>
	
		<rect x="1883.6" y="432.6" transform="matrix(0.3983 -0.9173 0.9173 0.3983 726.9548 2036.0433)" class="st8" width="63.7" height="62.7"/>
	<polygon class="st9" points="1913.6,468.4 1861.2,476.1 1883.5,424.8 	"/>
	<polygon class="st9" points="1914.3,468.7 1944.4,512.3 1966.7,461 	"/>
	<polygon class="st10" points="1916.5,462.8 1861.3,475.9 1944.5,512.1 	"/>
	<polygon class="st11" points="1916,463.9 1861.3,475.9 1944.5,512.1 	"/>
</g>
<g>
	<path class="st12" d="M2155.6,1149.1l80.7-21.5l-33-123.7c0,0-14.9-11-27.3-7.2c-12.4,3.9-55.1,17.1-55.1,17.1L2155.6,1149.1z"/>
	<path class="st13" d="M2146.1,1007.5c1.7,5.4,7.4,8.5,12.9,6.8l0,0c5.4-1.7,8.5-7.4,6.8-12.9l-3.6-11.8c-1.7-5.4-7.4-8.5-12.9-6.8
		l0,0c-5.4,1.7-8.5,7.4-6.8,12.9L2146.1,1007.5z"/>
	<path class="st13" d="M2096.2,978.8c6.1,19.7,27.1,30.8,46.8,24.7c19.7-6.1,30.8-27.1,24.7-46.8c-6.1-19.7-27.3-31.6-46.8-24.7
		C2080,946.6,2119.6,976.1,2096.2,978.8z"/>
	<path class="st12" d="M2103.6,1078.2c-5.6-5.9-1-10.6,1.5-22.4c2.3-11,11.4-36.4,11.4-36.4c9.2-17.7,33.6-4.6,39.9,6.5
		c3.9,6.8,5.4,17.7,0,22.8l-31.9,28.9C2119.1,1082.7,2109.1,1084.1,2103.6,1078.2L2103.6,1078.2z"/>
	<polygon class="st12" points="2029.3,1119.3 2105.8,1059.4 2120.6,1080.7 2036.5,1125.3 	"/>
	<rect x="2150.8" y="1127.5" class="st14" width="85.5" height="34.9"/>
	<polygon class="st14" points="2259.2,1223 2240.9,1232.2 2204.2,1142.9 2236.7,1126.5 	"/>
	<polygon class="st14" points="2298.6,1329.7 2286,1334.8 2240.9,1232.2 2259.2,1223 	"/>
	<path class="st15" d="M2286,1328.7l13.5-1.8l2.2,27.9c0,0-0.1,0-0.3,0l-51,0.1l-0.3-3.8l0.6,0
		C2253.6,1322.8,2275.9,1345.3,2286,1328.7z"/>
	<polygon class="st14" points="2084.2,1176.5 2079.3,1160.7 2150.8,1127.5 2168.8,1160 	"/>
	<polygon class="st14" points="2130.5,1280.7 2117.6,1284.7 2084.2,1176.5 2103.8,1170.5 	"/>
	<path class="st15" d="M2079.9,1301.9c5.2-27.9,25.7-7.7,37-23.4l13.6-0.7v24.1v3.9c0,0-33.9,0-51.2,0v-3.9H2079.9z"/>
	<path class="st8" d="M2111.8,989.6l24.6-7.6C2140.8,992.7,2128.2,1009.4,2111.8,989.6z"/>
	<path class="st16" d="M2087.3,933.3c7.1,1.2,8.9,3,20.8-3.8c16.8-9.6,42.1-17.1,42.4-14.7c15,1.8,28.4,12.2,33.1,27.7
		c6.3,20.2-4.5,41.7-24.1,48.9c-0.2-2.8-0.6-5.7-1.5-8.5c-0.5-1.7-1.2-3.4-2-5c1.7,0.3,3.5,0.2,5.2-0.3c5.7-1.8,8.9-7.8,7.1-13.5
		c-1.8-5.7-7.8-8.9-13.5-7.1c-4.4,1.4-7.3,5.3-7.6,9.6c-5.8-8.4-6-15.9-6-15.9c-10.2,4.4-18.8,9.1-34.8,9.2
		C2091.7,959.6,2082,950.6,2087.3,933.3z"/>
	<path class="st10" d="M2222.5,1075.9l-79.7,23.3c0,0,29.3-15.8,29-36.2c-0.2-17.8,11.3-50.1,11.3-50.1l21.8-3.9L2222.5,1075.9z"/>
	<path class="st12" d="M2147.8,1088.1c-6.3-5.1-6.7-13.2,1.8-26.6c12.1-19,18.3-49.8,18.3-49.8c10.6-23.7,33.5-13.1,40.7-2.1
		c4.4,6.7,6,18.9-0.2,26.7l-38,47.2C2164.2,1091.1,2154.1,1093.2,2147.8,1088.1L2147.8,1088.1z"/>
	<polygon class="st12" points="2081.9,1118.1 2144.7,1070.9 2165.1,1088.1 2086.5,1125.3 	"/>
	<path class="st13" d="M2007,1123.8c-9.1,1.7,1.1,25.4,10.2,24.2c9.2-1.2,19.3-8.9,18.1-18.1c-1.2-9.2-7.2-13-16.4-14.7
		C2006.8,1113.1,2016.6,1122,2007,1123.8z"/>
	<g>
		<g>
			<polygon class="st17" points="2079.9,1139.8 2081.9,1127 1910.3,1099.7 1908.3,1112.5 			"/>
		</g>
		<g>
			<polygon class="st18" points="1946.2,1124.5 1950,1099.8 1919.1,1094.9 1915.2,1119.7 			"/>
		</g>
		<g>
			<path class="st19" d="M1939.3,1098.1c0,0,8.4-53.4,9.2-58.8c-18.4,25.1-23.3,56.6-23.3,56.6L1939.3,1098.1z"/>
		</g>
		<g>
			<path class="st19" d="M1935.4,1122.8c0,0-8.4,53.4-9.2,58.8c-9.9-29.5-5-61-5-61L1935.4,1122.8z"/>
		</g>
	</g>
	<path class="st13" d="M2062.5,1119.4c-9.1,1.7,1.1,25.4,10.2,24.2c9.2-1.2,19.3-8.9,18.1-18.1c-1.2-9.2-7.2-13-16.4-14.7
		C2062.3,1108.7,2072.1,1117.5,2062.5,1119.4z"/>
</g>
<path class="st12" d="M1540.1,127.6c-1-0.3-2-0.3-2.9,0.2l-1.1,0.6l-3.4-6.9c-2.2-4.4-5.6-7.4-10.3-9c-4.7-1.6-9.3-1.3-13.7,0.9
	c-4.4,2.2-7.4,5.6-9,10.3c-1.6,4.7-1.3,9.3,0.9,13.7l3.4,6.9l-1.1,0.6c-1,0.5-1.6,1.2-1.9,2.2c-0.3,1-0.3,2,0.2,2.9l17,34.3
	l41.3-20.4l-17-34.3C1541.9,128.6,1541.1,128,1540.1,127.6z M1530.6,155.2l4,8.1c0.3,0.5,0,1.2-0.5,1.5c-0.5,0.3-1.2,0-1.5-0.5
	l-4-8.1c-1.9,0.4-4-0.5-4.9-2.4c-1.1-2.2-0.2-4.9,2-6c2.2-1.1,4.9-0.2,6,2C1532.6,151.7,1532.1,153.9,1530.6,155.2z M1529.2,131.8
	l-18.3,9.1l-3.4-6.9c-1.3-2.5-1.4-5.1-0.5-7.8c0.9-2.7,2.6-4.6,5.2-5.9c2.5-1.3,5.1-1.4,7.8-0.5c2.7,0.9,4.6,2.6,5.9,5.2
	L1529.2,131.8z"/>
<g>
	<g>
		<path class="st8" d="M1033.8,328.7c0,5.8-2.3,9.4-6.5,9.4c-4.1,0-6.3-3.8-6.4-9.2c0-5.6,2.4-9.3,6.6-9.3
			C1031.8,319.6,1033.8,323.5,1033.8,328.7z M1024.3,328.9c0,4.4,1.2,6.6,3.1,6.6c2,0,3-2.4,3-6.7c0-4.2-1-6.6-3-6.6
			C1025.6,322.2,1024.3,324.4,1024.3,328.9z"/>
		<path class="st8" d="M1041.3,323L1041.3,323l-3.3,1.7l-0.6-2.6l4.4-2.2h2.8v17.9h-3.3V323z"/>
		<path class="st8" d="M1063.4,328.7c0,5.8-2.3,9.4-6.5,9.4c-4.1,0-6.3-3.8-6.4-9.2c0-5.6,2.4-9.3,6.6-9.3
			C1061.4,319.6,1063.4,323.5,1063.4,328.7z M1053.9,328.9c0,4.4,1.2,6.6,3.1,6.6c2,0,3-2.4,3-6.7c0-4.2-1-6.6-3-6.6
			C1055.1,322.2,1053.9,324.4,1053.9,328.9z"/>
		<path class="st8" d="M1070.8,323L1070.8,323l-3.3,1.7l-0.6-2.6l4.4-2.2h2.8v17.9h-3.3V323z"/>
		<path class="st8" d="M1093,328.7c0,5.8-2.3,9.4-6.5,9.4c-4.1,0-6.3-3.8-6.4-9.2c0-5.6,2.4-9.3,6.6-9.3
			C1091,319.6,1093,323.5,1093,328.7z M1083.5,328.9c0,4.4,1.2,6.6,3.1,6.6c2,0,3-2.4,3-6.7c0-4.2-1-6.6-3-6.6
			C1084.7,322.2,1083.5,324.4,1083.5,328.9z"/>
		<path class="st8" d="M1100.4,323L1100.4,323l-3.3,1.7l-0.6-2.6l4.4-2.2h2.8v17.9h-3.3V323z"/>
		<path class="st8" d="M1122.5,328.7c0,5.8-2.3,9.4-6.5,9.4c-4.1,0-6.3-3.8-6.4-9.2c0-5.6,2.4-9.3,6.6-9.3
			C1120.5,319.6,1122.5,323.5,1122.5,328.7z M1113.1,328.9c0,4.4,1.2,6.6,3.1,6.6c2,0,3-2.4,3-6.7c0-4.2-1-6.6-3-6.6
			C1114.3,322.2,1113,324.4,1113.1,328.9z"/>
		<path class="st8" d="M1130,323L1130,323l-3.3,1.7l-0.6-2.6l4.4-2.2h2.8v17.9h-3.3V323z"/>
	</g>
	<g>
		<path class="st8" d="M1033.8,354.1c0,5.8-2.3,9.4-6.5,9.4c-4.1,0-6.3-3.8-6.4-9.2c0-5.6,2.4-9.3,6.6-9.3
			C1031.8,344.9,1033.8,348.8,1033.8,354.1z M1024.3,354.3c0,4.4,1.2,6.6,3.1,6.6c2,0,3-2.4,3-6.7c0-4.2-1-6.6-3-6.6
			C1025.6,347.5,1024.3,349.8,1024.3,354.3z"/>
		<path class="st8" d="M1041.3,348.3L1041.3,348.3l-3.3,1.7l-0.6-2.6l4.4-2.2h2.8v17.9h-3.3V348.3z"/>
		<path class="st8" d="M1063.4,354.1c0,5.8-2.3,9.4-6.5,9.4c-4.1,0-6.3-3.8-6.4-9.2c0-5.6,2.4-9.3,6.6-9.3
			C1061.4,344.9,1063.4,348.8,1063.4,354.1z M1053.9,354.3c0,4.4,1.2,6.6,3.1,6.6c2,0,3-2.4,3-6.7c0-4.2-1-6.6-3-6.6
			C1055.1,347.5,1053.9,349.8,1053.9,354.3z"/>
		<path class="st8" d="M1070.8,348.3L1070.8,348.3l-3.3,1.7l-0.6-2.6l4.4-2.2h2.8v17.9h-3.3V348.3z"/>
		<path class="st8" d="M1093,354.1c0,5.8-2.3,9.4-6.5,9.4c-4.1,0-6.3-3.8-6.4-9.2c0-5.6,2.4-9.3,6.6-9.3
			C1091,344.9,1093,348.8,1093,354.1z M1083.5,354.3c0,4.4,1.2,6.6,3.1,6.6c2,0,3-2.4,3-6.7c0-4.2-1-6.6-3-6.6
			C1084.7,347.5,1083.5,349.8,1083.5,354.3z"/>
		<path class="st8" d="M1100.4,348.3L1100.4,348.3l-3.3,1.7l-0.6-2.6l4.4-2.2h2.8v17.9h-3.3V348.3z"/>
		<path class="st8" d="M1122.5,354.1c0,5.8-2.3,9.4-6.5,9.4c-4.1,0-6.3-3.8-6.4-9.2c0-5.6,2.4-9.3,6.6-9.3
			C1120.5,344.9,1122.5,348.8,1122.5,354.1z M1113.1,354.3c0,4.4,1.2,6.6,3.1,6.6c2,0,3-2.4,3-6.7c0-4.2-1-6.6-3-6.6
			C1114.3,347.5,1113,349.8,1113.1,354.3z"/>
		<path class="st8" d="M1130,348.3L1130,348.3l-3.3,1.7l-0.6-2.6l4.4-2.2h2.8v17.9h-3.3V348.3z"/>
	</g>
	<g>
		<path class="st8" d="M1033.8,379.4c0,5.8-2.3,9.4-6.5,9.4c-4.1,0-6.3-3.8-6.4-9.2c0-5.6,2.4-9.3,6.6-9.3
			C1031.8,370.3,1033.8,374.1,1033.8,379.4z M1024.3,379.6c0,4.4,1.2,6.6,3.1,6.6c2,0,3-2.4,3-6.7c0-4.2-1-6.6-3-6.6
			C1025.6,372.9,1024.3,375.1,1024.3,379.6z"/>
		<path class="st8" d="M1041.3,373.6L1041.3,373.6l-3.3,1.7l-0.6-2.6l4.4-2.2h2.8v17.9h-3.3V373.6z"/>
		<path class="st8" d="M1063.4,379.4c0,5.8-2.3,9.4-6.5,9.4c-4.1,0-6.3-3.8-6.4-9.2c0-5.6,2.4-9.3,6.6-9.3
			C1061.4,370.3,1063.4,374.1,1063.4,379.4z M1053.9,379.6c0,4.4,1.2,6.6,3.1,6.6c2,0,3-2.4,3-6.7c0-4.2-1-6.6-3-6.6
			C1055.1,372.9,1053.9,375.1,1053.9,379.6z"/>
		<path class="st8" d="M1070.8,373.6L1070.8,373.6l-3.3,1.7l-0.6-2.6l4.4-2.2h2.8v17.9h-3.3V373.6z"/>
		<path class="st8" d="M1093,379.4c0,5.8-2.3,9.4-6.5,9.4c-4.1,0-6.3-3.8-6.4-9.2c0-5.6,2.4-9.3,6.6-9.3
			C1091,370.3,1093,374.1,1093,379.4z M1083.5,379.6c0,4.4,1.2,6.6,3.1,6.6c2,0,3-2.4,3-6.7c0-4.2-1-6.6-3-6.6
			C1084.7,372.9,1083.5,375.1,1083.5,379.6z"/>
		<path class="st8" d="M1100.4,373.6L1100.4,373.6l-3.3,1.7l-0.6-2.6l4.4-2.2h2.8v17.9h-3.3V373.6z"/>
		<path class="st8" d="M1122.5,379.4c0,5.8-2.3,9.4-6.5,9.4c-4.1,0-6.3-3.8-6.4-9.2c0-5.6,2.4-9.3,6.6-9.3
			C1120.5,370.3,1122.5,374.1,1122.5,379.4z M1113.1,379.6c0,4.4,1.2,6.6,3.1,6.6c2,0,3-2.4,3-6.7c0-4.2-1-6.6-3-6.6
			C1114.3,372.9,1113,375.1,1113.1,379.6z"/>
		<path class="st8" d="M1130,373.6L1130,373.6l-3.3,1.7l-0.6-2.6l4.4-2.2h2.8v17.9h-3.3V373.6z"/>
	</g>
</g>
<g>
	<g>
		<path class="st20" d="M1931.5,857.2c0,274.4-222.5,496.9-496.9,496.9s-496.8-222.4-496.8-496.9c0-274.4,222.4-496.9,496.8-496.9
			S1931.5,582.8,1931.5,857.2z"/>
	</g>
	<g>
		<path class="st21" d="M1830.2,857.2c0,218.5-177.1,395.5-395.5,395.5c-218.4,0-395.5-177.1-395.5-395.5
			c0-218.4,177.1-395.5,395.5-395.5C1653.1,461.7,1830.2,638.8,1830.2,857.2z"/>
	</g>
	<g class="st5">
		<path d="M1070.6,888.7c0-218.4,177.1-395.5,395.5-395.5c101.2,0,193.5,38,263.5,100.5c-72.4-81-177.7-132-295-132
			c-218.4,0-395.5,177.1-395.5,395.5c0,117.3,51,222.5,132,295C1108.6,1082.2,1070.6,990,1070.6,888.7z"/>
	</g>
	<g>
		<path class="st8" d="M1256.1,844.6l175.8,106.6l175.8-106.6l-175.8-281.2C1431.9,563.4,1256.1,848.1,1256.1,844.6z"/>
		<polygon class="st22" points="1434.2,766.1 1256.1,844.6 1431.9,951.3 1607.6,844.6 		"/>
		<polygon class="st22" points="1431.9,563.4 1431.9,951.3 1607.6,844.6 		"/>
		<polygon class="st8" points="1256.1,876.3 1430.7,1125.8 1606.4,873.9 1431.9,981.7 		"/>
	</g>
	<g class="st5">
		<path d="M1258.8,857.7l175.7,106.6l0.2-0.1l2,1.2l175.8-106.6l-175.8-281.2c0,0-0.3,0.4-0.7,1.2l-1.4-2.3
			c0,0-170,275.4-175.6,281.1L1258.8,857.7C1258.8,857.7,1258.8,857.7,1258.8,857.7z"/>
		<polygon points="1609.1,887 1434.7,994.7 1261,890.4 1261.3,890.8 1258.8,889.3 1433.4,1138.9 1434.1,1137.9 1435.6,1140 
			1611.3,888.1 1606.1,891.3 		"/>
	</g>
	<path class="st23" d="M1258.3,845.7l175.8,106.6l175.8-106.6l-175.8-281.2C1434.1,564.5,1258.3,849.2,1258.3,845.7z"/>
	<polygon class="st24" points="1434.1,564.5 1434.1,952.3 1609.8,845.7 	"/>
	<polygon class="st23" points="1258.3,877.4 1432.9,1126.9 1608.6,875 1434.1,982.8 	"/>
	<polygon class="st24" points="1436.4,767.2 1258.3,845.7 1434.1,952.3 1609.8,845.7 	"/>
</g>
<g>
	<path class="st25" d="M1835.8,276.1h-44.9v-44.9h44.9V276.1z M1781.9,276.1H1737v-44.9h44.9V276.1z M1799.8,240.2v26.9h26.9v-26.9
		H1799.8z M1746,240.2v26.9h26.9v-26.9H1746z M1817.8,258.1h-9v-9h9V258.1z M1763.9,258.1h-9v-9h9V258.1z M1835.8,330h-44.9v-44.9
		h44.9V330z M1781.9,330h-26.9V303h9v-9H1737v-9h44.9V312h-9v9h9V330z M1799.8,294.1V321h26.9v-26.9H1799.8z M1817.8,312h-9v-9h9
		V312z M1746,312h-9v-9h9V312z M1746,330h-9v-9h9V330z"/>
</g>
<g>
	<g>
		<g>
			<path class="st15" d="M1440.4,276c-4-3.8-8.5-7.9-5.8-13.9c2.3-4.6,6.4-7.9,8.5-12.7c1.9-3.9,1.7-7.1-0.7-10.7
				c-1.3-2-2.9-3.2-3.3-5.5c-0.6-2.7,0.7-3.9,1.9-6.2c5.5-9.7-4-17.6-13.6-16.3l-4-6.9c-4.7,0-11.2,6.2-12.7,10.4
				c-1.4,3.6-6.3,10.3-5,13.9c1.3,4,3,4.8-1.2,8.1c-2.5,2.2-5.5,2.5-4.2,6.8c1,3,7.5,7.7,4.5,11.3c-2.5,3-10,1.3-9.4,7.2
				c0.1,2.2,2.7,3,2.5,5.3c-0.3,2.6-3.6,3-5.3,4.3c-4.6,3.5-4.8,9.5,0.3,12.3c2.3,1.2,4.3,1.7,4.5,4.8c0.1,2.6-2.2,3.9-2.9,6.2
				c-1.2,4.3,4.3,7.7,7.8,8.7c4.3,1,8.4,1.4,12.6,2.9c4.9,1.6,10.8-1.2,15.3-3.3c5.1-2.5,12.1-5.6,14.3-11.3
				C1446.6,285.4,1444.9,280.2,1440.4,276z"/>
		</g>
		<polygon class="st26" points="1443.6,332.6 1406.5,332.6 1413.5,294.5 1414.2,252.2 1447.1,252.2 1450.9,290.6 1445.3,299.2 		"/>
		<path class="st13" d="M1435.9,253.1c0,3.2-2.6,5.7-5.7,5.7l0,0c-3.2,0-5.7-2.6-5.7-5.7v-6.8c0-3.2,2.6-5.7,5.7-5.7l0,0
			c3.2,0,5.7,2.6,5.7,5.7V253.1z"/>
		<path class="st13" d="M1457.7,229.7c0,11.5-9.3,20.8-20.8,20.8c-11.5,0-20.8-9.3-20.8-20.8c0-11.5,9.3-21.3,20.8-20.8
			C1461,209.8,1444.8,232,1457.7,229.7z"/>
		<path class="st26" d="M1465.4,290c-4.1-12-9.1-24.3-11.6-30.6c-2.5-6.3-4.7-9.8-13.3-5.6c-5,2.4-4.3,9.4-2.1,14.5l15.2,31
			c2.2,5,5.4,7.4,9.6,5.6C1463.2,304.9,1468.3,298.6,1465.4,290z"/>
		<rect x="1406.5" y="332.6" class="st14" width="37.1" height="18.6"/>
		<path class="st14" d="M1464.2,372.3l11.2-5.7l-68.9-34.1c0,0-13.7,29.3,6.3,32.2C1432.9,367.8,1464.2,372.3,1464.2,372.3z"/>
		<polygon class="st14" points="1449.9,432.4 1458.1,434.5 1475.6,366.5 1463.3,363.4 		"/>
		<path class="st8" d="M1452.6,239.1h-8.9C1443.2,243.1,1449.2,247.3,1452.6,239.1z"/>
		<path class="st27" d="M1458.1,434.5c4.6,11.6,20.9,12.3,18.4,22.1c-6.1-1.6-15.7-4-22.6-5.8c0,0,0-0.1,0-0.1c0,0,0.5-7.1-0.9-7.5
			c-1.4-0.4-2.9,0.5-3.3,1.9l-1,4.3c-1.8-0.5-3-0.8-3-0.8l4.3-16.8L1458.1,434.5z"/>
		<polygon class="st14" points="1495.3,354.2 1497.4,341.7 1443.6,332.6 1439.2,354.2 		"/>
		<polygon class="st14" points="1487.1,411.2 1495.5,411.6 1497.4,341.7 1485.4,341 		"/>
		<path class="st27" d="M1495.8,412.3c6.9,10.4,23,7.6,22.7,17.7c-6.3-0.2-16.2-0.6-23.3-0.8c0,0,0-0.1,0-0.1c0,0-1-7.1-2.5-7.1
			c-1.5-0.1-2.7,1.1-2.8,2.6l-0.1,4.5c-1.9-0.1-3.1-0.1-3.1-0.1l0.6-17.3L1495.8,412.3z"/>
		<g>
			<path class="st15" d="M1456.9,209.3c0.4-0.4,0.6-0.9,0.6-1.4c-0.3-3.8-3-6.1-5.6-2.7c-1.3,1.7-1.8,1.9-4.3,0.7
				c-10.6-4.9-22.8-3.1-24.1-2c-9,0.3-17.7,12.1-17.7,21.1c0,11.8,9.2,21.4,20.9,22.1c-0.4-1.5-0.6-3.1-0.6-4.8c0-1,0.1-2,0.2-3
				c-0.8,0.4-1.8,0.7-2.8,0.7c-3.3,0-6-2.7-6-6c0-3.3,2.7-6,6-6c2.6,0,4.8,1.6,5.6,3.9c0.6-1.9,4.2-3.5,4.9-11.4
				c0.7-0.3,1.2-0.7,1.6-1.2c0.1,4.6,9.2,3.6,10.4,0c-0.9,2.5,1.9,2.7,3.6,2.5c2.3-0.1,3.9-1.3,4.6-3.6c1.9,3.8,5.9,0.7,6.8-2.2
				C1461.8,212.3,1459.2,210.7,1456.9,209.3z"/>
		</g>
		<path class="st26" d="M1390.5,308.9c4.4-2.1,11.3-7.9,15.8-15.3c6.4-10.5,19.9-20.9,19.9-20.9c9-10.9-1.7-19.5-8.7-20.4
			c-4.3-0.5-10.7,1.6-13,6.5l-16.7,37.2C1382.2,306.7,1390.5,308.9,1390.5,308.9z"/>
		<polygon class="st26" points="1424.3,321 1392.9,290.8 1390.5,308.9 1422.5,327.5 		"/>
		<path class="st13" d="M1435,332.1c2,4.9,3.2-2.8,2.7-8.1c-0.5-5.3-4.9-4.8-10.2-4.3c-5.3,0.5-5-0.8-6.1,4.4
			C1420,331,1432.8,327,1435,332.1z"/>
	</g>
	<g>
		<path class="st8" d="M1422.5,332.8v2c0,0.6,0.5,1,1,1h90.7c0.6,0,1-0.5,1-1v-1.5v-0.5v-43.4v-2.7c0-0.6-0.5-1-1-1h-57.2h-5.9
			h-12.1c-0.6,0-1,0.5-1,1v15v31.1H1422.5z M1487.6,308c0,3.8-3.1,6.9-6.9,6.9c-2.7,0-5-1.5-6.1-3.7c0.1,0,0.2,0,0.3,0
			c3.8,0,6.9-3.1,6.9-6.9c0-1.2-0.3-2.2-0.8-3.2C1484.6,301.3,1487.6,304.3,1487.6,308z"/>
		<path class="st17" d="M1480.7,315c-2.7,0-5-1.5-6.1-3.7c0.1,0,0.2,0,0.3,0c3.8,0,6.9-3.1,6.9-6.9c0-1.2-0.3-2.2-0.8-3.2
			c3.7,0.1,6.7,3.2,6.7,6.9C1487.6,311.9,1484.5,315,1480.7,315z"/>
	</g>
</g>
<g>
	<path class="st28" d="M618.1,1159.6l-73.4-19.6l30-112.6c0,0,13.6-10,24.9-6.5c11.3,3.5,50.1,15.5,50.1,15.5L618.1,1159.6z"/>
	<path class="st13" d="M626.6,1030.9c-1.5,4.9-6.8,7.7-11.7,6.2l0,0c-4.9-1.5-7.7-6.8-6.2-11.7l3.3-10.7c1.5-4.9,6.8-7.7,11.7-6.2
		l0,0c4.9,1.5,7.7,6.8,6.2,11.7L626.6,1030.9z"/>
	<path class="st13" d="M672,1004.7c-5.6,18-24.6,28-42.6,22.4c-18-5.6-28-24.6-22.4-42.6c5.6-18,24.9-28.8,42.6-22.4
		C686.8,975.4,650.8,1002.2,672,1004.7z"/>
	<path class="st28" d="M540,1024.1c-1.3,7.3,4.6,8.6,12.3,16.3c7.2,7.2,26.8,22,26.8,22c15.8,8.8,27.9-13.3,27.1-24.9
		c-0.5-7.1-4.7-16.1-11.4-17.3l-38.6-6.1C549.6,1013,541.3,1016.8,540,1024.1L540,1024.1z"/>
	<polygon class="st28" points="508.4,976.3 541.1,1030.1 555.5,1014.7 518.7,973.7 	"/>
	<rect x="544.6" y="1140" class="st14" width="77.8" height="31.7"/>
	<polygon class="st14" points="523.8,1226.8 540.4,1235.2 573.8,1154 544.2,1139.1 	"/>
	<polygon class="st14" points="488,1323.9 499.4,1328.5 540.4,1235.2 523.8,1226.8 	"/>
	<path class="st15" d="M499.5,1323l-12.3-1.7l-2,25.3c0,0,0.1,0,0.3,0l46.4,0.1l0.3-3.5l-0.5,0C528.9,1317.6,508.6,1338,499.5,1323z
		"/>
	<polygon class="st14" points="683,1184.5 687.4,1170.2 622.4,1140 606.1,1169.6 	"/>
	<polygon class="st14" points="640.8,1279.3 652.6,1282.9 683,1184.5 665.2,1179.1 	"/>
	<path class="st15" d="M686.9,1298.6c-4.7-25.4-23.4-7-33.7-21.2l-12.4-0.7v21.9v3.5c0,0,30.9,0,46.6,0v-3.5H686.9z"/>
	<path class="st8" d="M657.9,1014.6l-22.4-6.9C631.4,1017.3,642.9,1032.5,657.9,1014.6z"/>
	<path class="st16" d="M680.2,963.3c-6.5,1.1-8.1,2.8-18.9-3.4c-15.2-8.7-38.3-15.6-38.5-13.4c-13.7,1.7-25.8,11.1-30.1,25.1
		c-5.7,18.4,4.1,37.9,21.9,44.5c0.1-2.6,0.6-5.1,1.4-7.7c0.5-1.6,1.1-3.1,1.8-4.5c-1.5,0.3-3.1,0.2-4.7-0.3
		c-5.2-1.6-8.1-7.1-6.5-12.3c1.6-5.2,7.1-8.1,12.3-6.5c4,1.2,6.6,4.8,6.9,8.8c5.3-7.6,5.5-14.5,5.5-14.5c9.3,4,17.1,8.3,31.7,8.4
		C676.1,987.3,685,979,680.2,963.3z"/>
	<path class="st10" d="M630.4,1111.7l8.4-34.3c0,0-8.6-6-8.4-24.6c0.2-16.2-22.6-29.1-22.6-29.1s-9.6-3.8-12.6-3.5L630.4,1111.7z"/>
	<path class="st28" d="M599.8,994.9c-5.8,4.5-6.3,11.9,1.3,24.3c10.8,17.4,16,45.5,16,45.5c9.4,21.7,30.3,12.3,37,2.4
		c4.1-6.1,5.7-17.2,0.2-24.2l-33.9-43.4C614.8,992.4,605.6,990.3,599.8,994.9L599.8,994.9z"/>
	<polygon class="st28" points="540.3,966.8 596.8,1010.5 615.6,995.1 544.5,960.3 	"/>
	<path class="st13" d="M502.8,978c-8.2-1.7,1.3-23.1,9.6-21.9c8.3,1.2,17.5,8.4,16.2,16.7c-1.2,8.3-6.7,11.8-15.1,13.1
		C502.5,987.7,511.5,979.7,502.8,978z"/>
	<g>
		<g>
			<polygon class="st17" points="555,933.7 562.2,943.1 436.2,1038.6 429.1,1029.2 			"/>
		</g>
		<g>
			<polygon class="st18" points="454.3,1003.3 468,1021.5 445.3,1038.7 431.5,1020.5 			"/>
		</g>
		<g>
			<path class="st19" d="M460.1,1027.5c0,0,29.6,39.3,32.6,43.2c-25.5-12.3-43-35.4-43-35.4L460.1,1027.5z"/>
		</g>
		<g>
			<path class="st19" d="M446.4,1009.3c0,0-29.6-39.3-32.6-43.2c4.7,27.9,22.2,51,22.2,51L446.4,1009.3z"/>
		</g>
	</g>
	<path class="st13" d="M522.7,965.5c-8.2-1.7,1.3-23.1,9.6-21.9c8.3,1.2,17.5,8.4,16.2,16.7c-1.2,8.3-6.7,11.8-15.1,13.1
		C522.4,975.2,531.4,967.2,522.7,965.5z"/>
</g>
<g>
	<g>
		<g>
			<circle class="st20" cx="833.8" cy="1200" r="88.3"/>
		</g>
		<g>
			<path class="st21" d="M763.5,1200c0,38.8,31.5,70.3,70.3,70.3c38.8,0,70.3-31.5,70.3-70.3c0-38.8-31.5-70.3-70.3-70.3
				C795,1129.8,763.5,1161.2,763.5,1200z"/>
		</g>
		<g class="st5">
			<path d="M898.5,1205.6c0-38.8-31.5-70.3-70.3-70.3c-18,0-34.4,6.8-46.8,17.9c12.9-14.4,31.6-23.5,52.4-23.5
				c38.8,0,70.3,31.5,70.3,70.3c0,20.8-9.1,39.5-23.5,52.4C891.7,1240,898.5,1223.6,898.5,1205.6z"/>
		</g>
		<g>
			<path class="st8" d="M865.5,1197.8l-31.2,18.9l-31.2-18.9l31.2-50C834.3,1147.8,865.5,1198.4,865.5,1197.8z"/>
			<polygon class="st22" points="833.9,1183.8 865.5,1197.8 834.3,1216.7 803.1,1197.8 			"/>
			<polygon class="st22" points="834.3,1147.8 834.3,1216.7 803.1,1197.8 			"/>
			<polygon class="st8" points="865.5,1203.4 834.5,1247.7 803.3,1203 834.3,1222.1 			"/>
		</g>
		<g class="st5">
			<path d="M865,1200.1l-31.2,18.9l0,0l-0.4,0.2l-31.2-18.9l31.2-50c0,0,0,0.1,0.1,0.2l0.3-0.4C833.8,1150.2,864,1199.1,865,1200.1
				L865,1200.1C865,1200.1,865,1200.1,865,1200.1z"/>
			<polygon points="802.8,1205.3 833.8,1224.4 864.6,1205.9 864.6,1206 865,1205.7 834,1250.1 833.9,1249.9 833.6,1250.2 
				802.4,1205.5 803.3,1206.1 			"/>
		</g>
		<path class="st23" d="M865.1,1198l-31.2,18.9l-31.2-18.9l31.2-50C833.9,1148,865.1,1198.6,865.1,1198z"/>
		<polygon class="st24" points="833.9,1148 833.9,1216.9 802.7,1198 		"/>
		<polygon class="st23" points="865.1,1203.6 834.1,1247.9 802.9,1203.2 833.9,1222.3 		"/>
		<polygon class="st24" points="833.5,1184 865.1,1198 833.9,1216.9 802.7,1198 		"/>
	</g>
	<g>
		<g>
			<circle class="st20" cx="1072.2" cy="1080.6" r="57.2"/>
		</g>
		<g>
			<ellipse class="st21" cx="1072.2" cy="1080.6" rx="45.5" ry="45.5"/>
		</g>
		<g class="st5">
			<path d="M1114.1,1084.2c0-25.1-20.4-45.5-45.5-45.5c-11.7,0-22.3,4.4-30.3,11.6c8.3-9.3,20.5-15.2,34-15.2
				c25.1,0,45.5,20.4,45.5,45.5c0,13.5-5.9,25.6-15.2,34C1109.7,1106.5,1114.1,1095.9,1114.1,1084.2z"/>
		</g>
		<g>
			<path class="st8" d="M1092.7,1079.1l-20.2,12.3l-20.2-12.3l20.2-32.4C1072.5,1046.8,1092.7,1079.6,1092.7,1079.1z"/>
			<polygon class="st22" points="1072.2,1070.1 1092.7,1079.1 1072.5,1091.4 1052.3,1079.1 			"/>
			<polygon class="st22" points="1072.5,1046.8 1072.5,1091.4 1052.3,1079.1 			"/>
			<polygon class="st8" points="1092.7,1082.8 1072.6,1111.5 1052.4,1082.5 1072.5,1094.9 			"/>
		</g>
		<g class="st5">
			<path d="M1092.4,1080.7l-20.2,12.3l0,0l-0.2,0.1l-20.2-12.3l20.2-32.4c0,0,0,0,0.1,0.1l0.2-0.3
				C1072.2,1048.3,1091.8,1080,1092.4,1080.7L1092.4,1080.7C1092.4,1080.7,1092.4,1080.7,1092.4,1080.7z"/>
			<polygon points="1052.1,1084 1072.2,1096.4 1092.2,1084.4 1092.1,1084.5 1092.4,1084.3 1072.3,1113 1072.3,1112.9 1072.1,1113.1 
				1051.9,1084.1 1052.4,1084.5 			"/>
		</g>
		<path class="st23" d="M1092.5,1079.3l-20.2,12.3l-20.2-12.3l20.2-32.4C1072.3,1046.9,1092.5,1079.7,1092.5,1079.3z"/>
		<polygon class="st24" points="1072.3,1046.9 1072.3,1091.5 1052,1079.3 		"/>
		<polygon class="st23" points="1092.5,1082.9 1072.4,1111.6 1052.2,1082.6 1072.3,1095.1 		"/>
		<polygon class="st24" points="1072,1070.2 1092.5,1079.3 1072.3,1091.5 1052,1079.3 		"/>
	</g>
	<g>
		<g>
			<circle class="st20" cx="1242.9" cy="1182.3" r="57.2"/>
		</g>
		<g>
			<circle class="st21" cx="1242.9" cy="1182.3" r="45.5"/>
		</g>
		<g class="st5">
			<path d="M1284.8,1185.9c0-25.1-20.4-45.5-45.5-45.5c-11.7,0-22.3,4.4-30.3,11.6c8.3-9.3,20.5-15.2,34-15.2
				c25.1,0,45.5,20.4,45.5,45.5c0,13.5-5.9,25.6-15.2,34C1280.4,1208.2,1284.8,1197.6,1284.8,1185.9z"/>
		</g>
		<g>
			<path class="st8" d="M1263.4,1180.8l-20.2,12.3l-20.2-12.3l20.2-32.4C1243.2,1148.5,1263.4,1181.2,1263.4,1180.8z"/>
			<polygon class="st22" points="1242.9,1171.8 1263.4,1180.8 1243.2,1193.1 1222.9,1180.8 			"/>
			<polygon class="st22" points="1243.2,1148.5 1243.2,1193.1 1222.9,1180.8 			"/>
			<polygon class="st8" points="1263.4,1184.5 1243.3,1213.2 1223.1,1184.2 1243.2,1196.6 			"/>
		</g>
		<g class="st5">
			<path d="M1263.1,1182.3l-20.2,12.3l0,0l-0.2,0.1l-20.2-12.3l20.2-32.4c0,0,0,0,0.1,0.1l0.2-0.3
				C1242.9,1150,1262.4,1181.7,1263.1,1182.3L1263.1,1182.3C1263.1,1182.3,1263.1,1182.3,1263.1,1182.3z"/>
			<polygon points="1222.8,1185.7 1242.8,1198.1 1262.8,1186.1 1262.8,1186.1 1263.1,1186 1243,1214.7 1242.9,1214.6 1242.7,1214.8 
				1222.5,1185.8 1223.1,1186.2 			"/>
		</g>
		<path class="st23" d="M1263.2,1180.9l-20.2,12.3l-20.2-12.3l20.2-32.4C1242.9,1148.6,1263.2,1181.4,1263.2,1180.9z"/>
		<polygon class="st24" points="1242.9,1148.6 1242.9,1193.2 1222.7,1180.9 		"/>
		<polygon class="st23" points="1263.2,1184.6 1243.1,1213.3 1222.8,1184.3 1242.9,1196.7 		"/>
		<polygon class="st24" points="1242.7,1171.9 1263.2,1180.9 1242.9,1193.2 1222.7,1180.9 		"/>
	</g>
	<g>
		<g>
			<circle class="st20" cx="916.9" cy="1124.3" r="34.7"/>
		</g>
		<g>
			<circle class="st21" cx="916.9" cy="1124.3" r="27.7"/>
		</g>
		<g class="st5">
			<path d="M942.4,1126.5c0-15.3-12.4-27.7-27.7-27.7c-7.1,0-13.5,2.7-18.4,7c5.1-5.7,12.4-9.2,20.6-9.2c15.3,0,27.7,12.4,27.7,27.7
				c0,8.2-3.6,15.6-9.2,20.6C939.7,1140,942.4,1133.5,942.4,1126.5z"/>
		</g>
		<g>
			<path class="st8" d="M929.4,1123.4l-12.3,7.5l-12.3-7.5l12.3-19.7C917.1,1103.7,929.4,1123.6,929.4,1123.4z"/>
			<polygon class="st22" points="917,1117.9 929.4,1123.4 917.1,1130.8 904.9,1123.4 			"/>
			<polygon class="st22" points="917.1,1103.7 917.1,1130.8 904.9,1123.4 			"/>
			<polygon class="st8" points="929.4,1125.6 917.2,1143 904.9,1125.4 917.1,1133 			"/>
		</g>
		<g class="st5">
			<path d="M929.2,1124.3l-12.3,7.5l0,0l-0.1,0.1l-12.3-7.5l12.3-19.7c0,0,0,0,0.1,0.1l0.1-0.2
				C917,1104.6,928.8,1123.9,929.2,1124.3L929.2,1124.3L929.2,1124.3z"/>
			<polygon points="904.7,1126.3 916.9,1133.9 929.1,1126.6 929.1,1126.6 929.2,1126.5 917,1144 917,1143.9 916.9,1144 
				904.6,1126.4 905,1126.6 			"/>
		</g>
		<path class="st23" d="M929.3,1123.5l-12.3,7.5l-12.3-7.5l12.3-19.7C917,1103.8,929.3,1123.7,929.3,1123.5z"/>
		<polygon class="st24" points="917,1103.8 917,1130.9 904.7,1123.5 		"/>
		<polygon class="st23" points="929.3,1125.7 917.1,1143.1 904.8,1125.5 917,1133 		"/>
		<polygon class="st24" points="916.8,1118 929.3,1123.5 917,1130.9 904.7,1123.5 		"/>
	</g>
	<g>
		<g>
			<polygon class="st18" points="593.6,1300.1 806.8,1248.8 834,1256.6 986,1049.5 1145.7,1115.6 1266.5,1227.3 1321.8,1300.1 
				1300.7,1350.5 575.2,1350.5 			"/>
		</g>
		<g>
			<polygon class="st29" points="806.8,1248.8 796.6,1350.5 887.1,1350.5 834,1256.6 			"/>
		</g>
		<g>
			<polygon class="st29" points="986,1049.5 1135.3,1350.5 1198.2,1350.5 1145.7,1115.6 			"/>
		</g>
		<g>
			<polygon class="st29" points="1266.5,1227.3 1198.2,1350.5 1300.7,1350.5 1321.8,1300.1 			"/>
		</g>
	</g>
	<g>
		<g>
			<circle class="st20" cx="1000.6" cy="1238.7" r="44.1"/>
		</g>
		<g>
			<circle class="st21" cx="1000.6" cy="1238.7" r="35.1"/>
		</g>
		<g class="st5">
			<path d="M1032.9,1241.5c0-19.4-15.7-35.1-35.1-35.1c-9,0-17.2,3.4-23.4,8.9c6.4-7.2,15.8-11.7,26.2-11.7
				c19.4,0,35.1,15.7,35.1,35.1c0,10.4-4.5,19.7-11.7,26.2C1029.5,1258.6,1032.9,1250.5,1032.9,1241.5z"/>
		</g>
		<g>
			<path class="st8" d="M1016.5,1237.6l-15.6,9.5l-15.6-9.5l15.6-24.9C1000.9,1212.6,1016.5,1237.9,1016.5,1237.6z"/>
			<polygon class="st22" points="1000.7,1230.6 1016.5,1237.6 1000.9,1247 985.3,1237.6 			"/>
			<polygon class="st22" points="1000.9,1212.6 1000.9,1247 985.3,1237.6 			"/>
			<polygon class="st8" points="1016.5,1240.4 1001,1262.5 985.4,1240.2 1000.9,1249.7 			"/>
		</g>
		<g class="st5">
			<path d="M1016.2,1238.7l-15.6,9.5l0,0l-0.2,0.1l-15.6-9.5l15.6-24.9c0,0,0,0,0.1,0.1l0.1-0.2
				C1000.6,1213.8,1015.7,1238.2,1016.2,1238.7L1016.2,1238.7C1016.2,1238.7,1016.2,1238.7,1016.2,1238.7z"/>
			<polygon points="985.2,1241.3 1000.6,1250.9 1016,1241.6 1016,1241.7 1016.2,1241.5 1000.7,1263.7 1000.7,1263.6 1000.5,1263.8 
				985,1241.4 985.4,1241.7 			"/>
		</g>
		<path class="st23" d="M1016.3,1237.7l-15.6,9.5l-15.6-9.5l15.6-24.9C1000.7,1212.7,1016.3,1238,1016.3,1237.7z"/>
		<polygon class="st24" points="1000.7,1212.7 1000.7,1247.1 985.1,1237.7 		"/>
		<polygon class="st23" points="1016.3,1240.5 1000.8,1262.6 985.2,1240.3 1000.7,1249.8 		"/>
		<polygon class="st24" points="1000.5,1230.7 1016.3,1237.7 1000.7,1247.1 985.1,1237.7 		"/>
	</g>
	<g>
		<g>
			<circle class="st20" cx="1103.3" cy="1238.7" r="44.1"/>
		</g>
		<g>
			<circle class="st21" cx="1103.3" cy="1238.7" r="35.1"/>
		</g>
		<g class="st5">
			<path d="M1135.5,1241.5c0-19.4-15.7-35.1-35.1-35.1c-9,0-17.2,3.4-23.4,8.9c6.4-7.2,15.8-11.7,26.2-11.7
				c19.4,0,35.1,15.7,35.1,35.1c0,10.4-4.5,19.7-11.7,26.2C1132.2,1258.6,1135.5,1250.5,1135.5,1241.5z"/>
		</g>
		<g>
			<path class="st8" d="M1119.1,1237.6l-15.6,9.5l-15.6-9.5l15.6-24.9C1103.5,1212.6,1119.1,1237.9,1119.1,1237.6z"/>
			<polygon class="st22" points="1103.3,1230.6 1119.1,1237.6 1103.5,1247 1087.9,1237.6 			"/>
			<polygon class="st22" points="1103.5,1212.6 1103.5,1247 1087.9,1237.6 			"/>
			<polygon class="st8" points="1119.1,1240.4 1103.6,1262.5 1088,1240.2 1103.5,1249.7 			"/>
		</g>
		<g class="st5">
			<path d="M1118.8,1238.7l-15.6,9.5l0,0l-0.2,0.1l-15.6-9.5l15.6-24.9c0,0,0,0,0.1,0.1l0.1-0.2
				C1103.3,1213.8,1118.3,1238.2,1118.8,1238.7L1118.8,1238.7C1118.8,1238.7,1118.8,1238.7,1118.8,1238.7z"/>
			<polygon points="1087.8,1241.3 1103.2,1250.9 1118.7,1241.6 1118.6,1241.7 1118.8,1241.5 1103.4,1263.7 1103.3,1263.6 
				1103.2,1263.8 1087.6,1241.4 1088,1241.7 			"/>
		</g>
		<path class="st23" d="M1118.9,1237.7l-15.6,9.5l-15.6-9.5l15.6-24.9C1103.3,1212.7,1118.9,1238,1118.9,1237.7z"/>
		<polygon class="st24" points="1103.3,1212.7 1103.3,1247.1 1087.7,1237.7 		"/>
		<polygon class="st23" points="1118.9,1240.5 1103.4,1262.6 1087.8,1240.3 1103.3,1249.8 		"/>
		<polygon class="st24" points="1103.1,1230.7 1118.9,1237.7 1103.3,1247.1 1087.7,1237.7 		"/>
	</g>
	<g>
		<polygon class="st29" points="977.4,1268.9 1020.7,1250.1 1088.2,1274 1129,1349.3 955.7,1349.3 		"/>
		<polygon class="st18" points="1020.7,1250.1 1140.9,1257.4 1160.8,1348.4 987.5,1348.4 		"/>
	</g>
</g>
<g>
	<g>
		<g>
			<circle class="st20" cx="1927" cy="1197.8" r="88.3"/>
		</g>
		<g>
			<ellipse class="st21" cx="1927" cy="1197.8" rx="70.3" ry="70.3"/>
		</g>
		<g class="st5">
			<path d="M1862.4,1203.4c0-38.8,31.5-70.3,70.3-70.3c18,0,34.4,6.8,46.8,17.9c-12.9-14.4-31.6-23.5-52.4-23.5
				c-38.8,0-70.3,31.5-70.3,70.3c0,20.8,9.1,39.5,23.5,52.4C1869.1,1237.8,1862.4,1221.4,1862.4,1203.4z"/>
		</g>
		<g>
			<path class="st8" d="M1895.3,1195.6l31.2,18.9l31.2-18.9l-31.2-50C1926.6,1145.6,1895.3,1196.2,1895.3,1195.6z"/>
			<polygon class="st22" points="1927,1181.6 1895.3,1195.6 1926.6,1214.5 1957.8,1195.6 			"/>
			<polygon class="st22" points="1926.6,1145.6 1926.6,1214.5 1957.8,1195.6 			"/>
			<polygon class="st8" points="1895.3,1201.2 1926.3,1245.5 1957.6,1200.8 1926.6,1219.9 			"/>
		</g>
		<g class="st5">
			<path d="M1895.8,1197.9l31.2,18.9l0,0l0.4,0.2l31.2-18.9l-31.2-50c0,0,0,0.1-0.1,0.2l-0.3-0.4
				C1927,1147.9,1896.8,1196.9,1895.8,1197.9L1895.8,1197.9C1895.8,1197.9,1895.8,1197.9,1895.8,1197.9z"/>
			<polygon points="1958,1203.1 1927.1,1222.2 1896.2,1203.7 1896.2,1203.8 1895.8,1203.5 1926.8,1247.8 1926.9,1247.7 1927.2,1248 
				1958.4,1203.3 1957.5,1203.9 			"/>
		</g>
		<path class="st23" d="M1895.7,1195.8l31.2,18.9l31.2-18.9l-31.2-50C1926.9,1145.8,1895.7,1196.4,1895.7,1195.8z"/>
		<polygon class="st24" points="1926.9,1145.8 1926.9,1214.7 1958.2,1195.8 		"/>
		<polygon class="st23" points="1895.7,1201.4 1926.7,1245.7 1958,1201 1926.9,1220.1 		"/>
		<polygon class="st24" points="1927.4,1181.8 1895.7,1195.8 1926.9,1214.7 1958.2,1195.8 		"/>
	</g>
	<g>
		<g>
			<circle class="st20" cx="1688.6" cy="1078.4" r="57.2"/>
		</g>
		<g>
			<circle class="st21" cx="1688.6" cy="1078.4" r="45.5"/>
		</g>
		<g class="st5">
			<path d="M1646.7,1082c0-25.1,20.4-45.5,45.5-45.5c11.7,0,22.3,4.4,30.3,11.6c-8.3-9.3-20.5-15.2-34-15.2
				c-25.1,0-45.5,20.4-45.5,45.5c0,13.5,5.9,25.6,15.2,34C1651.1,1104.3,1646.7,1093.7,1646.7,1082z"/>
		</g>
		<g>
			<path class="st8" d="M1668.1,1076.9l20.2,12.3l20.2-12.3l-20.2-32.4C1688.3,1044.6,1668.1,1077.3,1668.1,1076.9z"/>
			<polygon class="st22" points="1688.6,1067.9 1668.1,1076.9 1688.3,1089.2 1708.6,1076.9 			"/>
			<polygon class="st22" points="1688.3,1044.6 1688.3,1089.2 1708.6,1076.9 			"/>
			<polygon class="st8" points="1668.1,1080.6 1688.2,1109.3 1708.4,1080.3 1688.3,1092.7 			"/>
		</g>
		<g class="st5">
			<path d="M1668.4,1078.4l20.2,12.3l0,0l0.2,0.1l20.2-12.3l-20.2-32.4c0,0,0,0-0.1,0.1l-0.2-0.3
				C1688.6,1046.1,1669.1,1077.8,1668.4,1078.4L1668.4,1078.4C1668.4,1078.4,1668.4,1078.4,1668.4,1078.4z"/>
			<polygon points="1708.7,1081.8 1688.7,1094.2 1668.7,1082.2 1668.7,1082.3 1668.4,1082.1 1688.5,1110.8 1688.6,1110.7 
				1688.8,1110.9 1709,1081.9 1708.4,1082.3 			"/>
		</g>
		<path class="st23" d="M1668.3,1077.1l20.2,12.3l20.2-12.3l-20.2-32.4C1688.6,1044.7,1668.3,1077.5,1668.3,1077.1z"/>
		<polygon class="st24" points="1688.6,1044.7 1688.6,1089.3 1708.8,1077.1 		"/>
		<polygon class="st23" points="1668.3,1080.7 1688.4,1109.4 1708.7,1080.4 1688.6,1092.8 		"/>
		<polygon class="st24" points="1688.8,1068 1668.3,1077.1 1688.6,1089.3 1708.8,1077.1 		"/>
	</g>
	<g>
		<g>
			<circle class="st20" cx="1518" cy="1180.1" r="57.2"/>
		</g>
		<g>
			<circle class="st21" cx="1518" cy="1180.1" r="45.5"/>
		</g>
		<g class="st5">
			<path d="M1476.1,1183.7c0-25.1,20.4-45.5,45.5-45.5c11.7,0,22.3,4.4,30.3,11.6c-8.3-9.3-20.5-15.2-34-15.2
				c-25.1,0-45.5,20.4-45.5,45.5c0,13.5,5.9,25.6,15.2,34C1480.5,1206,1476.1,1195.3,1476.1,1183.7z"/>
		</g>
		<g>
			<path class="st8" d="M1497.4,1178.6l20.2,12.3l20.2-12.3l-20.2-32.4C1517.7,1146.2,1497.4,1179,1497.4,1178.6z"/>
			<polygon class="st22" points="1517.9,1169.6 1497.4,1178.6 1517.7,1190.9 1537.9,1178.6 			"/>
			<polygon class="st22" points="1517.7,1146.2 1517.7,1190.9 1537.9,1178.6 			"/>
			<polygon class="st8" points="1497.4,1182.3 1517.5,1211 1537.8,1182 1517.7,1194.4 			"/>
		</g>
		<g class="st5">
			<path d="M1497.7,1180.1l20.2,12.3l0,0l0.2,0.1l20.2-12.3l-20.2-32.4c0,0,0,0-0.1,0.1l-0.2-0.3
				C1518,1147.7,1498.4,1179.4,1497.7,1180.1L1497.7,1180.1C1497.7,1180.1,1497.7,1180.1,1497.7,1180.1z"/>
			<polygon points="1538.1,1183.5 1518,1195.9 1498,1183.9 1498,1183.9 1497.7,1183.8 1517.8,1212.5 1517.9,1212.4 1518.1,1212.6 
				1538.3,1183.6 1537.7,1184 			"/>
		</g>
		<path class="st23" d="M1497.7,1178.7l20.2,12.3l20.2-12.3l-20.2-32.4C1517.9,1146.4,1497.7,1179.1,1497.7,1178.7z"/>
		<polygon class="st24" points="1517.9,1146.4 1517.9,1191 1538.1,1178.7 		"/>
		<polygon class="st23" points="1497.7,1182.4 1517.8,1211.1 1538,1182.1 1517.9,1194.5 		"/>
		<polygon class="st24" points="1518.2,1169.7 1497.7,1178.7 1517.9,1191 1538.1,1178.7 		"/>
	</g>
	<g>
		<g>
			<circle class="st20" cx="1843.9" cy="1122.1" r="34.7"/>
		</g>
		<g>
			<circle class="st21" cx="1843.9" cy="1122.1" r="27.7"/>
		</g>
		<g class="st5">
			<path d="M1818.4,1124.3c0-15.3,12.4-27.7,27.7-27.7c7.1,0,13.5,2.7,18.4,7c-5.1-5.7-12.4-9.2-20.6-9.2
				c-15.3,0-27.7,12.4-27.7,27.7c0,8.2,3.6,15.6,9.2,20.6C1821.1,1137.8,1818.4,1131.3,1818.4,1124.3z"/>
		</g>
		<g>
			<path class="st8" d="M1831.4,1121.2l12.3,7.5l12.3-7.5l-12.3-19.7C1843.7,1101.5,1831.4,1121.4,1831.4,1121.2z"/>
			<polygon class="st22" points="1843.9,1115.7 1831.4,1121.2 1843.7,1128.6 1856,1121.2 			"/>
			<polygon class="st22" points="1843.7,1101.5 1843.7,1128.6 1856,1121.2 			"/>
			<polygon class="st8" points="1831.4,1123.4 1843.6,1140.8 1855.9,1123.2 1843.7,1130.8 			"/>
		</g>
		<g class="st5">
			<path d="M1831.6,1122.1l12.3,7.5l0,0l0.1,0.1l12.3-7.5l-12.3-19.7c0,0,0,0-0.1,0.1l-0.1-0.2
				C1843.9,1102.4,1832,1121.7,1831.6,1122.1L1831.6,1122.1C1831.6,1122.1,1831.6,1122.1,1831.6,1122.1z"/>
			<polygon points="1856.1,1124.1 1843.9,1131.7 1831.7,1124.4 1831.8,1124.4 1831.6,1124.3 1843.8,1141.7 1843.9,1141.7 
				1844,1141.8 1856.2,1124.2 1855.9,1124.4 			"/>
		</g>
		<path class="st23" d="M1831.6,1121.2l12.3,7.5l12.3-7.5l-12.3-19.7C1843.8,1101.6,1831.6,1121.5,1831.6,1121.2z"/>
		<polygon class="st24" points="1843.8,1101.6 1843.8,1128.7 1856.1,1121.2 		"/>
		<polygon class="st23" points="1831.6,1123.5 1843.8,1140.9 1856.1,1123.3 1843.8,1130.8 		"/>
		<polygon class="st24" points="1844,1115.8 1831.6,1121.2 1843.8,1128.7 1856.1,1121.2 		"/>
	</g>
	<g>
		<g>
			<polygon class="st18" points="2167.3,1297.8 1954,1246.6 1926.9,1254.4 1774.8,1047.3 1615.1,1113.4 1494.3,1225.1 1439,1297.8 
				1460.1,1348.3 2185.6,1348.3 			"/>
		</g>
		<g>
			<polygon class="st29" points="1954,1246.6 1964.2,1348.3 1873.7,1348.3 1926.9,1254.4 			"/>
		</g>
		<g>
			<polygon class="st29" points="1774.8,1047.3 1625.5,1348.3 1562.6,1348.3 1615.1,1113.4 			"/>
		</g>
		<g>
			<polygon class="st29" points="1494.3,1225.1 1562.6,1348.3 1460.1,1348.3 1439,1297.8 			"/>
		</g>
	</g>
	<g>
		<g>
			<circle class="st20" cx="1760.2" cy="1236.5" r="44.1"/>
		</g>
		<g>
			<circle class="st21" cx="1760.2" cy="1236.5" r="35.1"/>
		</g>
		<g class="st5">
			<path d="M1727.9,1239.3c0-19.4,15.7-35.1,35.1-35.1c9,0,17.2,3.4,23.4,8.9c-6.4-7.2-15.8-11.7-26.2-11.7
				c-19.4,0-35.1,15.7-35.1,35.1c0,10.4,4.5,19.7,11.7,26.2C1731.3,1256.4,1727.9,1248.2,1727.9,1239.3z"/>
		</g>
		<g>
			<path class="st8" d="M1744.4,1235.4l15.6,9.5l15.6-9.5l-15.6-24.9C1760,1210.4,1744.4,1235.7,1744.4,1235.4z"/>
			<polygon class="st22" points="1760.2,1228.4 1744.4,1235.4 1760,1244.8 1775.6,1235.4 			"/>
			<polygon class="st22" points="1760,1210.4 1760,1244.8 1775.6,1235.4 			"/>
			<polygon class="st8" points="1744.4,1238.2 1759.9,1260.3 1775.4,1237.9 1760,1247.5 			"/>
		</g>
		<g class="st5">
			<path d="M1744.6,1236.5l15.6,9.5l0,0l0.2,0.1l15.6-9.5l-15.6-24.9c0,0,0,0-0.1,0.1l-0.1-0.2
				C1760.2,1211.6,1745.1,1236,1744.6,1236.5L1744.6,1236.5C1744.6,1236.5,1744.6,1236.5,1744.6,1236.5z"/>
			<polygon points="1775.7,1239.1 1760.2,1248.7 1744.8,1239.4 1744.8,1239.4 1744.6,1239.3 1760.1,1261.5 1760.2,1261.4 
				1760.3,1261.5 1775.9,1239.2 1775.4,1239.5 			"/>
		</g>
		<path class="st23" d="M1744.6,1235.4l15.6,9.5l15.6-9.5l-15.6-24.9C1760.2,1210.5,1744.6,1235.8,1744.6,1235.4z"/>
		<polygon class="st24" points="1760.2,1210.5 1760.2,1244.9 1775.7,1235.4 		"/>
		<polygon class="st23" points="1744.6,1238.3 1760.1,1260.4 1775.6,1238 1760.2,1247.6 		"/>
		<polygon class="st24" points="1760.4,1228.5 1744.6,1235.4 1760.2,1244.9 1775.7,1235.4 		"/>
	</g>
	<g>
		<g>
			<circle class="st20" cx="1657.6" cy="1236.5" r="44.1"/>
		</g>
		<g>
			<circle class="st21" cx="1657.6" cy="1236.5" r="35.1"/>
		</g>
		<g class="st5">
			<path d="M1625.3,1239.3c0-19.4,15.7-35.1,35.1-35.1c9,0,17.2,3.4,23.4,8.9c-6.4-7.2-15.8-11.7-26.2-11.7
				c-19.4,0-35.1,15.7-35.1,35.1c0,10.4,4.5,19.7,11.7,26.2C1628.7,1256.4,1625.3,1248.2,1625.3,1239.3z"/>
		</g>
		<g>
			<path class="st8" d="M1641.7,1235.4l15.6,9.5l15.6-9.5l-15.6-24.9C1657.3,1210.4,1641.7,1235.7,1641.7,1235.4z"/>
			<polygon class="st22" points="1657.5,1228.4 1641.7,1235.4 1657.3,1244.8 1672.9,1235.4 			"/>
			<polygon class="st22" points="1657.3,1210.4 1657.3,1244.8 1672.9,1235.4 			"/>
			<polygon class="st8" points="1641.7,1238.2 1657.2,1260.3 1672.8,1237.9 1657.3,1247.5 			"/>
		</g>
		<g class="st5">
			<path d="M1642,1236.5l15.6,9.5l0,0l0.2,0.1l15.6-9.5l-15.6-24.9c0,0,0,0-0.1,0.1l-0.1-0.2C1657.6,1211.6,1642.5,1236,1642,1236.5
				L1642,1236.5C1642,1236.5,1642,1236.5,1642,1236.5z"/>
			<polygon points="1673.1,1239.1 1657.6,1248.7 1642.2,1239.4 1642.2,1239.4 1642,1239.3 1657.5,1261.5 1657.5,1261.4 
				1657.7,1261.5 1673.3,1239.2 1672.8,1239.5 			"/>
		</g>
		<path class="st23" d="M1641.9,1235.4l15.6,9.5l15.6-9.5l-15.6-24.9C1657.5,1210.5,1641.9,1235.8,1641.9,1235.4z"/>
		<polygon class="st24" points="1657.5,1210.5 1657.5,1244.9 1673.1,1235.4 		"/>
		<polygon class="st23" points="1641.9,1238.3 1657.4,1260.4 1673,1238 1657.5,1247.6 		"/>
		<polygon class="st24" points="1657.7,1228.5 1641.9,1235.4 1657.5,1244.9 1673.1,1235.4 		"/>
	</g>
	<g>
		<polygon class="st29" points="1783.4,1266.7 1740.2,1247.8 1672.7,1271.8 1631.8,1347.1 1805.1,1347.1 		"/>
		<polygon class="st18" points="1740.2,1247.8 1619.9,1255.2 1600.1,1346.2 1773.3,1346.2 		"/>
	</g>
</g>
<g>
	<path class="st23" d="M1178.1,305.8l47.1,0.9l22.5-41.4l-67.2-35.4C1180.4,229.9,1178.5,306.5,1178.1,305.8z"/>
	<polygon class="st24" points="1180.4,229.9 1225.1,306.7 1247.6,265.3 	"/>
	<polygon class="st23" points="1181.7,312.1 1245,341.4 1250.8,271.3 1228.6,312.7 	"/>
	<polygon class="st24" points="1204.3,269.8 1178.1,305.8 1225.1,306.7 1247.6,265.3 	"/>
</g>
<g>
	<path class="st23" d="M761.7,879.7l34.1,0.6l16.3-30l-48.7-25.7C763.4,824.7,762,880.2,761.7,879.7z"/>
	<polygon class="st24" points="763.4,824.7 795.8,880.3 812.1,850.3 	"/>
	<polygon class="st23" points="764.4,884.2 810.2,905.4 814.4,854.6 798.4,884.7 	"/>
	<polygon class="st24" points="780.7,853.6 761.7,879.7 795.8,880.3 812.1,850.3 	"/>
</g>
<g>
	<path class="st23" d="M2021,767.8l19.2,48.7l52,5.5l7.7-84C2100,737.9,2020.5,768.6,2021,767.8z"/>
	<polygon class="st24" points="2100,737.9 2040.2,816.5 2092.3,822 	"/>
	<polygon class="st23" points="2016.2,774.3 2013.1,851.7 2087.5,827.7 2035.5,822.7 	"/>
	<polygon class="st24" points="2069.2,779.4 2021,767.8 2040.2,816.5 2092.3,822 	"/>
</g>
</svg>
