<?xml version="1.0" encoding="utf-8"?>
<!-- Generator: Adobe Illustrator 22.0.1, SVG Export Plug-In . SVG Version: 6.00 Build 0)  -->
<svg version="1.1" id="Layer_1" xmlns="http://www.w3.org/2000/svg" xmlns:xlink="http://www.w3.org/1999/xlink" x="0px" y="0px"
	 viewBox="0 0 512 512" style="enable-background:new 0 0 512 512;" xml:space="preserve">
<style type="text/css">
	.st0{fill:#EDF3FC;}
	.st1{fill:url(#SVGID_1_);}
	.st2{fill:url(#SVGID_2_);}
	.st3{fill:url(#SVGID_3_);}
	.st4{fill:url(#SVGID_4_);}
	.st5{fill:#FFBE1B;}
	.st6{fill:url(#SVGID_5_);}
	.st7{fill:url(#SVGID_6_);}
	.st8{fill:url(#SVGID_7_);}
	.st9{fill:url(#SVGID_8_);}
	.st10{fill:#FFE37B;}
	.st11{fill:#FFFFFF;}
	.st12{fill:#5D8EF9;}
	.st13{fill:#8AC9F9;}
	.st14{fill:#330D84;}
	.st15{fill:#5932AE;}
	.st16{fill:#6857E5;}
	.st17{fill:url(#SVGID_9_);}
	.st18{fill:url(#SVGID_10_);}
	.st19{fill:url(#SVGID_11_);}
	.st20{fill:url(#SVGID_12_);}
	.st21{fill:url(#SVGID_13_);}
	.st22{fill:url(#SVGID_14_);}
	.st23{fill:#8C7BFD;}
	.st24{fill:#D5EBF7;}
	.st25{fill:#CECAFF;}
	.st26{fill:url(#XMLID_3_);}
	.st27{fill:#7C72F7;}
	.st28{fill:#73AAF9;}
	.st29{fill:#EFAB11;}
	.st30{fill:#6DC5F2;}
	.st31{fill:#FFF9CC;}
</style>
<g>
	<g>
		<g>
			<circle class="st0" cx="256" cy="256" r="215.07"/>
		</g>
	</g>
	<g>
		<g>
			<path class="st0" d="M256,1C115.395,1,1,115.393,1,255.999C1,396.607,115.395,511,256,511c140.607,0,255-114.393,255-255.001
				C511,115.393,396.607,1,256,1z M256,502.828c-136.1,0-246.826-110.727-246.826-246.829C9.174,119.897,119.9,9.169,256,9.169
				c136.102,0,246.828,110.729,246.828,246.831C502.828,392.101,392.102,502.828,256,502.828z"/>
		</g>
	</g>
	<g>
		<g>
			<path class="st5" d="M220.172,122.051c0-4.559,0.608-8.975,1.733-13.179c-6.564-3.085-13.888-4.817-21.62-4.817
				c-28.109,0-50.891,22.783-50.891,50.892c0,13.976,5.637,26.633,14.757,35.831h72.268c6.146-6.197,10.701-13.969,13.024-22.652
				C232.149,159.997,220.172,142.427,220.172,122.051z"/>
		</g>
	</g>
	<g>
		<g>
			<path class="st10" d="M220.179,122.333c-5.795-3.542-12.606-5.585-19.893-5.585c-21.098,0-38.201,17.102-38.201,38.199
				c0,16.431,10.377,30.438,24.934,35.831h26.534c12.805-4.744,22.375-16.154,24.494-30.015
				C227.179,151.486,220.263,137.723,220.179,122.333z"/>
		</g>
	</g>
	<g>
		<g>
			<path class="st11" d="M215.686,157.331c-1.355-1.571-3.188-2.607-5.484-3.104c0.637-0.28,1.078-0.483,1.322-0.609
				c0.252-0.12,0.689-0.432,1.328-0.927c1.875-1.413,2.811-3.568,2.811-6.466c0-2.407-0.83-4.561-2.494-6.467
				c-0.918-1.028-2.289-1.839-4.109-2.441c-0.539-0.181-1.127-0.324-1.732-0.449v-4.713h-6.504v4.259h-4.357v-4.259h-6.504v4.259
				h-1.816h-5.305v7h5.305v23.063h-5.305v7h5.305h1.816v4.264h6.504v-4.264h4.357v4.264h6.504v-4.423
				c3.535-0.381,6.129-1.466,7.75-3.285c1.768-1.979,2.654-4.26,2.654-6.842C217.73,160.858,217.045,158.906,215.686,157.331z
				 M196.416,143.414h3.977c2.436,0,4.174,0.267,5.193,0.794c1.025,0.531,1.539,1.617,1.539,3.262c0,1.642-0.557,2.713-1.668,3.207
				c-1.111,0.495-2.822,0.743-5.119,0.743h-3.922V143.414z M207.418,165.601c-1.184,0.586-2.963,0.876-5.332,0.876h-5.67v-8.534
				h4.879c2.752,0,4.76,0.274,6.016,0.82c1.254,0.548,1.883,1.68,1.883,3.395C209.193,163.87,208.602,165.019,207.418,165.601z"/>
		</g>
	</g>
	<g>
		<g>
			<path class="st5" d="M115.379,211.069c-10.32-2.588-18.387-10.655-20.977-20.98l-0.441-1.763l-0.441,1.763
				c-2.59,10.325-10.656,18.392-20.984,20.98l-1.76,0.444l1.76,0.442c10.328,2.587,18.395,10.654,20.984,20.98l0.441,1.764
				l0.441-1.764c2.59-10.326,10.656-18.392,20.977-20.98l1.768-0.442L115.379,211.069z"/>
		</g>
	</g>
	<g>
		<g>
			<path class="st5" d="M124.66,163.231c-7.377-1.849-13.139-7.613-14.99-14.988l-0.313-1.261l-0.314,1.261
				c-1.852,7.375-7.613,13.138-14.994,14.988l-1.256,0.318l1.256,0.314c7.381,1.849,13.143,7.613,14.994,14.989l0.314,1.261
				l0.313-1.261c1.852-7.376,7.613-13.141,14.99-14.989l1.26-0.314L124.66,163.231z"/>
		</g>
	</g>
	<g>
		<g>
			<path class="st12" d="M427.428,265.978c-7.777-1.947-13.848-8.018-15.797-15.79l-0.336-1.327l-0.334,1.327
				c-1.943,7.772-8.014,13.842-15.789,15.79l-1.318,0.334l1.318,0.328c7.775,1.949,13.846,8.021,15.789,15.797l0.334,1.321
				l0.336-1.321c1.949-7.776,8.02-13.848,15.797-15.797l1.316-0.328L427.428,265.978z"/>
		</g>
	</g>
	<g>
		<g>
			<path class="st14" d="M371.766,111.472c-8.645-2.167-15.396-8.919-17.564-17.564l-0.373-1.476l-0.373,1.476
				c-2.16,8.645-8.908,15.397-17.565,17.564l-1.469,0.37l1.469,0.371c8.656,2.163,15.404,8.914,17.565,17.562l0.373,1.476
				l0.373-1.476c2.168-8.648,8.92-15.399,17.564-17.562l1.473-0.371L371.766,111.472z"/>
		</g>
	</g>
	<g>
		<g>
			<path class="st16" d="M297.82,200.221c0-3.228,0.314-6.382,0.889-9.443h-143.18c-13.685,0-24.811,10.929-25.141,24.529
				c0.15,1.085,1.591,9.249,11.531,14.441c6.617,3.466,17.365,3.426,22.438,3.426h145.59
				C302.391,224.294,297.82,212.794,297.82,200.221z"/>
		</g>
	</g>
	<g>
		<g>
			<path class="st12" d="M348.709,149.326c-28.104,0-50.889,22.785-50.889,50.895c0,12.574,4.57,24.074,12.127,32.953h46.523
				c8.094,0,15.287,3.824,19.888,9.76c13.982-9.07,23.241-24.805,23.241-42.713C399.6,172.112,376.815,149.326,348.709,149.326z"/>
		</g>
	</g>
	<g>
		<g>
			<path class="st13" d="M348.709,162.02c-21.094,0-38.197,17.103-38.197,38.201c0,14.048,7.59,26.318,18.886,32.953h27.073
				c3.049,0,5.971,0.543,8.675,1.536c12.871-6.144,21.765-19.278,21.765-34.489C386.91,179.123,369.809,162.02,348.709,162.02z"/>
		</g>
	</g>
	<g>
		<g>
			<polygon class="st11" points="348.709,174.537 333.043,198.439 348.709,209.987 364.377,198.44 			"/>
		</g>
	</g>
	<g>
		<g>
			<polygon class="st11" points="348.709,213.923 333.043,201.584 348.709,225.898 364.377,201.584 			"/>
		</g>
	</g>
	<g>
		<g>
			<path class="st23" d="M356.471,233.174H164.357c-5.072,0-15.82,0.04-22.438-3.426c-10.664-5.569-11.547-14.565-11.547-14.565
				v165.827c0,13.889,11.264,25.15,25.156,25.15h200.941c13.893,0,25.15-11.262,25.15-25.15V258.32
				C381.621,244.43,370.363,233.174,356.471,233.174z"/>
		</g>
	</g>
	<g>
		<g>
			<path class="st13" d="M313.666,294.555c-6.223,0-11.266,5.046-11.266,11.272v27.115c0,6.223,5.043,11.272,11.266,11.272h67.955
				v-49.659H313.666z"/>
		</g>
	</g>
	<g>
		<g>
			<path class="st10" d="M324.252,308.2c-6.176,0-11.188,5.008-11.188,11.185c0,6.177,5.012,11.188,11.188,11.188
				c6.178,0,11.182-5.012,11.182-11.188C335.434,313.208,330.43,308.2,324.252,308.2z"/>
		</g>
	</g>
	<g>
		<g>
			<path class="st14" d="M271.066,71.163c-28.109,0-50.895,22.783-50.895,50.888c0,28.109,22.785,50.892,50.895,50.892
				c28.102,0,50.887-22.783,50.887-50.892C321.953,93.946,299.168,71.163,271.066,71.163z"/>
		</g>
	</g>
	<g>
		<g>
			<path class="st15" d="M271.066,83.854c-21.098,0-38.201,17.101-38.201,38.198c0,21.098,17.104,38.201,38.201,38.201
				c21.094,0,38.197-17.103,38.197-38.201C309.264,100.955,292.16,83.854,271.066,83.854z"/>
		</g>
	</g>
	<g>
		<g>
			<polygon class="st11" points="292.228,132.193 292.228,105.022 271.066,126.716 249.904,105.022 249.904,132.193 
				243.502,132.193 243.502,139.084 256.793,139.084 256.793,121.954 271.066,136.568 285.34,121.954 285.34,139.084 
				298.627,139.084 298.627,132.193 			"/>
		</g>
	</g>
	<g>
		<g>
			<path class="st11" d="M251.4,308.318c-6.709,0-12.323,4.748-13.672,11.06h-25.637l-19.232-21.897h-62.486v5.85h59.836
				l19.23,21.897h28.29c1.349,6.308,6.962,11.056,13.671,11.056c7.707,0,13.977-6.272,13.977-13.98
				C265.377,314.59,259.107,308.318,251.4,308.318z M251.4,330.433c-3.454,0-6.403-2.166-7.581-5.206h2.821
				c0.985,1.598,2.746,2.666,4.76,2.666c3.088,0,5.59-2.503,5.59-5.591s-2.502-5.594-5.59-5.594c-2.015,0-3.776,1.07-4.761,2.669
				h-2.821c1.178-3.043,4.128-5.21,7.582-5.21c4.482,0,8.127,3.648,8.127,8.135C259.527,326.784,255.883,330.433,251.4,330.433z"/>
		</g>
	</g>
	<g>
		<g>
			<path class="st11" d="M350.934,365.724l-9.748-5.85H227.293l-15.332,21.898h-25.439c-1.349-6.311-6.962-11.059-13.672-11.059
				c-7.707,0-13.977,6.271-13.977,13.982c0,7.709,6.27,13.98,13.977,13.98c6.709,0,12.322-4.746,13.671-11.055h28.487l15.332-21.898
				h109.223l9.748,5.85h32.311v-5.85H350.934z M172.85,390.289c2.016,0,3.777-1.068,4.762-2.666h2.819
				c-1.179,3.04-4.128,5.205-7.581,5.205c-4.482,0-8.127-3.648-8.127-8.131c0-4.486,3.645-8.135,8.127-8.135
				c3.455,0,6.405,2.167,7.583,5.211h-2.819c-0.985-1.599-2.747-2.67-4.763-2.67c-3.088,0-5.59,2.506-5.59,5.594
				C167.26,387.787,169.762,390.289,172.85,390.289z"/>
		</g>
	</g>
	<g>
		<g>
			<path class="st11" d="M198.754,334.256c-2.014,0-3.775,1.07-4.761,2.669h-27.937l-5.584,11.25h-30.1v5.85h33.725l5.584-11.25
				h24.312c0.985,1.598,2.746,2.666,4.761,2.666c3.088,0,5.592-2.502,5.592-5.59S201.842,334.256,198.754,334.256z"/>
		</g>
	</g>
	<g>
		<g>
			<path class="st11" d="M276.748,250.413c-2.015,0-3.776,1.07-4.761,2.669h-20.614l-11.699-5.85h-81.418l-5.582,11.25h-22.301v5.85
				h25.926l5.584-11.25h76.412l11.699,5.85h21.993c0.985,1.598,2.747,2.666,4.761,2.666c3.088,0,5.59-2.503,5.59-5.591
				C282.338,252.919,279.836,250.413,276.748,250.413z"/>
		</g>
	</g>
	<g>
		<g>
			<path class="st11" d="M301.547,265.372l-11.043,21.447h-47.025l-19.232-15.148h-36.885c-0.985-1.599-2.747-2.67-4.762-2.67
				c-3.088,0-5.592,2.506-5.592,5.594c0,3.089,2.504,5.592,5.592,5.592c2.014,0,3.775-1.068,4.76-2.666h34.861l19.232,15.149h52.615
				l11.045-21.447h76.508v-5.85H301.547z"/>
		</g>
	</g>
</g>
</svg>
